# www.mecabricks.com
mtllib Untitled Model.mtl
o Part.1
v -0.8 9.6 1.386
v -0.414 9.6 1.545
v 0 9.6 1.6
v 0.414 9.6 1.545
v 0.8 9.6 1.386
v 1.131 9.6 1.131
v 1.386 9.6 0.8
v 1.545 9.6 0.414
v 4.337 9.247 0
v 4.839 8.322 1.297
v 4.585 8.837 1.229
v 4.19 9.247 1.123
v 3.691 9.509 0.989
v 3.139 9.58 0.841
v 3.691 1.191 0.989
v 4.19 1.453 1.123
v 4.585 1.863 1.229
v 4.839 2.378 1.297
v 2.318 8.5 0.621
v 0 8.5 0
v 1.545 11.6 0.414
v 2.318 11.6 0.621
v 2.318 9.58 0.621
v 4.926 7.75 1.32
v 4.926 2.95 1.32
v 3.139 1.1 0.841
v 3.139 0.02 0.841
v 2.318 0.02 0.621
v 2.078 0.02 1.2
v 2.815 0.02 1.625
v 2.815 1.1 1.625
v 4.417 2.95 2.55
v 4.417 7.75 2.55
v 2.078 9.58 1.2
v 2.078 11.6 1.2
v 1.386 11.6 0.8
v 2.078 8.5 1.2
v 4.338 2.378 2.505
v 4.111 1.863 2.373
v 3.756 1.453 2.169
v 3.31 1.191 1.911
v 2.815 9.58 1.625
v 3.31 9.509 1.911
v 3.756 9.247 2.169
v 4.111 8.837 2.373
v 4.338 8.322 2.505
v 3.542 8.322 3.542
v 3.356 8.837 3.356
v 3.067 9.247 3.067
v 2.702 9.509 2.702
v 2.298 9.58 2.298
v 2.702 1.191 2.702
v 3.067 1.453 3.067
v 3.356 1.863 3.356
v 3.542 2.378 3.542
v 1.697 8.5 1.697
v 1.131 11.6 1.131
v 1.697 11.6 1.697
v 1.697 9.58 1.697
v 3.606 7.75 3.606
v 3.606 2.95 3.606
v 2.298 1.1 2.298
v 2.298 0.02 2.298
v 1.697 0.02 1.697
v 1.2 0.02 2.078
v 1.625 0.02 2.815
v 1.625 1.1 2.815
v 2.55 2.95 4.417
v 2.55 7.75 4.417
v 1.2 9.58 2.078
v 1.2 11.6 2.078
v 0.8 11.6 1.386
v 1.2 8.5 2.078
v 2.505 2.378 4.338
v 2.373 1.863 4.111
v 2.169 1.453 3.756
v 1.911 1.191 3.31
v 1.625 9.58 2.815
v 1.911 9.509 3.31
v 2.169 9.247 3.756
v 2.373 8.837 4.111
v 2.505 8.322 4.338
v 1.297 8.322 4.839
v 1.229 8.837 4.585
v 1.123 9.247 4.19
v 0.989 9.509 3.691
v 0.841 9.58 3.139
v 0.989 1.191 3.691
v 1.123 1.453 4.19
v 1.229 1.863 4.585
v 1.297 2.378 4.839
v 0.621 8.5 2.318
v 0.414 11.6 1.545
v 0.621 11.6 2.318
v 0.621 9.58 2.318
v 1.32 7.75 4.926
v 1.32 2.95 4.926
v 0.841 1.1 3.139
v 0.841 0.02 3.139
v 0.621 0.02 2.318
v 0 0.02 2.4
v 0 0.02 3.25
v 0 1.1 3.25
v 0 2.95 5.1
v 0 7.75 5.1
v 0 9.58 2.4
v 0 11.6 2.4
v 0 11.6 1.6
v 0 8.5 2.4
v 0 2.378 5.009
v 0 1.863 4.747
v 0 1.453 4.337
v 0 1.191 3.822
v 0 9.58 3.25
v 0 9.509 3.822
v 0 9.247 4.337
v 0 8.837 4.747
v 0 8.322 5.009
v -1.297 8.322 4.839
v -1.229 8.837 4.585
v -1.123 9.247 4.19
v -0.989 9.509 3.691
v -0.841 9.58 3.139
v -0.989 1.191 3.691
v -1.123 1.453 4.19
v -1.229 1.863 4.585
v -1.297 2.378 4.839
v -0.621 8.5 2.318
v -0.414 11.6 1.545
v -0.621 11.6 2.318
v -0.621 9.58 2.318
v -1.32 7.75 4.926
v -1.32 2.95 4.926
v -0.841 1.1 3.139
v -0.841 0.02 3.139
v -0.621 0.02 2.318
v -1.2 0.02 2.078
v -1.625 0.02 2.815
v -1.625 1.1 2.815
v -2.55 2.95 4.417
v -2.55 7.75 4.417
v -1.2 9.58 2.078
v -1.2 11.6 2.078
v -0.8 11.6 1.386
v -1.2 8.5 2.078
v -2.505 2.378 4.338
v -2.373 1.863 4.111
v -2.169 1.453 3.756
v -1.911 1.191 3.31
v -1.625 9.58 2.815
v -1.911 9.509 3.31
v -2.169 9.247 3.756
v -2.373 8.837 4.111
v -2.505 8.322 4.338
v -3.542 8.322 3.542
v -3.356 8.837 3.356
v -3.067 9.247 3.067
v -2.702 9.509 2.702
v -2.298 9.58 2.298
v -2.702 1.191 2.702
v -3.067 1.453 3.067
v -3.356 1.863 3.356
v -3.542 2.378 3.542
v -1.697 8.5 1.697
v -1.131 11.6 1.131
v -1.697 11.6 1.697
v -1.697 9.58 1.697
v -3.606 7.75 3.606
v -3.606 2.95 3.606
v -2.298 1.1 2.298
v -2.298 0.02 2.298
v -1.697 0.02 1.697
v -2.078 0.02 1.2
v -2.815 0.02 1.625
v -2.815 1.1 1.625
v -4.417 2.95 2.55
v -4.417 7.75 2.55
v -2.078 9.58 1.2
v -2.078 11.6 1.2
v -1.386 11.6 0.8
v -2.078 8.5 1.2
v -4.338 2.378 2.505
v -4.111 1.863 2.373
v -3.756 1.453 2.169
v -3.31 1.191 1.911
v -2.815 9.58 1.625
v -3.31 9.509 1.911
v -3.756 9.247 2.169
v -4.111 8.837 2.373
v -4.338 8.322 2.505
v -4.839 8.322 1.297
v -4.585 8.837 1.229
v -4.19 9.247 1.123
v -3.691 9.509 0.989
v -3.139 9.58 0.841
v -3.691 1.191 0.989
v -4.19 1.453 1.123
v -4.585 1.863 1.229
v -4.839 2.378 1.297
v -2.318 8.5 0.621
v -1.545 11.6 0.414
v -2.318 11.6 0.621
v -2.318 9.58 0.621
v -4.926 7.75 1.32
v -4.926 2.95 1.32
v -3.139 1.1 0.841
v -3.139 0.02 0.841
v -2.318 0.02 0.621
v -2.4 0.02 0
v -3.25 0.02 0
v -3.25 1.1 0
v -5.1 2.95 0
v -5.1 7.75 0
v -2.4 9.58 0
v -2.4 11.6 0
v -1.6 11.6 0
v -2.4 8.5 0
v -5.009 2.378 0
v -4.747 1.863 0
v -4.337 1.453 0
v -3.822 1.191 0
v -3.25 9.58 0
v -3.822 9.509 0
v -4.337 9.247 0
v -4.747 8.837 0
v -5.009 8.322 0
v -4.839 8.322 -1.297
v -4.585 8.837 -1.229
v -4.19 9.247 -1.123
v -3.691 9.509 -0.989
v -3.139 9.58 -0.841
v -3.691 1.191 -0.989
v -4.19 1.453 -1.123
v -4.585 1.863 -1.229
v -4.839 2.378 -1.297
v -2.318 8.5 -0.621
v -1.545 11.6 -0.414
v -2.318 11.6 -0.621
v -2.318 9.58 -0.621
v -4.926 7.75 -1.32
v -4.926 2.95 -1.32
v -3.139 1.1 -0.841
v -3.139 0.02 -0.841
v -2.318 0.02 -0.621
v -2.078 0.02 -1.2
v -2.815 0.02 -1.625
v -2.815 1.1 -1.625
v -4.417 2.95 -2.55
v -4.417 7.75 -2.55
v -2.078 9.58 -1.2
v -2.078 11.6 -1.2
v -1.386 11.6 -0.8
v -2.078 8.5 -1.2
v -4.338 2.378 -2.505
v -4.111 1.863 -2.373
v -3.756 1.453 -2.169
v -3.31 1.191 -1.911
v -2.815 9.58 -1.625
v -3.31 9.509 -1.911
v -3.756 9.247 -2.169
v -4.111 8.837 -2.373
v -4.338 8.322 -2.505
v -3.542 8.322 -3.542
v -3.356 8.837 -3.356
v -3.067 9.247 -3.067
v -2.702 9.509 -2.702
v -2.298 9.58 -2.298
v -2.702 1.191 -2.702
v -3.067 1.453 -3.067
v -3.356 1.863 -3.356
v -3.542 2.378 -3.542
v -1.697 8.5 -1.697
v -1.131 11.6 -1.131
v -1.697 11.6 -1.697
v -1.697 9.58 -1.697
v -3.606 7.75 -3.606
v -3.606 2.95 -3.606
v -2.298 1.1 -2.298
v -2.298 0.02 -2.298
v -1.697 0.02 -1.697
v -1.2 0.02 -2.078
v -1.625 0.02 -2.815
v -1.625 1.1 -2.815
v -2.55 2.95 -4.417
v -2.55 7.75 -4.417
v -1.2 9.58 -2.078
v -1.2 11.6 -2.078
v -0.8 11.6 -1.386
v -1.2 8.5 -2.078
v -2.505 2.378 -4.338
v -2.373 1.863 -4.111
v -2.169 1.453 -3.756
v -1.911 1.191 -3.31
v -1.625 9.58 -2.815
v -1.911 9.509 -3.31
v -2.169 9.247 -3.756
v -2.373 8.837 -4.111
v -2.505 8.322 -4.338
v -1.297 8.322 -4.839
v -1.229 8.837 -4.585
v -1.123 9.247 -4.19
v -0.989 9.509 -3.691
v -0.841 9.58 -3.139
v -0.989 1.191 -3.691
v -1.123 1.453 -4.19
v -1.229 1.863 -4.585
v -1.297 2.378 -4.839
v -0.621 8.5 -2.318
v -0.414 11.6 -1.545
v -0.621 11.6 -2.318
v -0.621 9.58 -2.318
v -1.32 7.75 -4.926
v -1.32 2.95 -4.926
v -0.841 1.1 -3.139
v -0.841 0.02 -3.139
v -0.621 0.02 -2.318
v 0 0.02 -2.4
v 0 0.02 -3.25
v 0 1.1 -3.25
v 0 2.95 -5.1
v 0 7.75 -5.1
v 0 9.58 -2.4
v 0 11.6 -2.4
v 0 11.6 -1.6
v 0 8.5 -2.4
v 0 2.378 -5.009
v 0 1.863 -4.747
v 0 1.453 -4.337
v 0 1.191 -3.822
v 0 9.58 -3.25
v 0 9.509 -3.822
v 0 9.247 -4.337
v 0 8.837 -4.747
v 0 8.322 -5.009
v 1.297 8.322 -4.839
v 1.229 8.837 -4.585
v 1.123 9.247 -4.19
v 0.989 9.509 -3.691
v 0.841 9.58 -3.139
v 0.989 1.191 -3.691
v 1.123 1.453 -4.19
v 1.229 1.863 -4.585
v 1.297 2.378 -4.839
v 0.621 8.5 -2.318
v 0.414 11.6 -1.545
v 0.621 11.6 -2.318
v 0.621 9.58 -2.318
v 1.32 7.75 -4.926
v 1.32 2.95 -4.926
v 0.841 1.1 -3.139
v 0.841 0.02 -3.139
v 0.621 0.02 -2.318
v 1.2 0.02 -2.078
v 1.625 0.02 -2.815
v 1.625 1.1 -2.815
v 2.55 2.95 -4.417
v 2.55 7.75 -4.417
v 1.2 9.58 -2.078
v 1.2 11.6 -2.078
v 0.8 11.6 -1.386
v 1.2 8.5 -2.078
v 2.505 2.378 -4.338
v 2.373 1.863 -4.111
v 2.169 1.453 -3.756
v 1.911 1.191 -3.31
v 1.625 9.58 -2.815
v 1.911 9.509 -3.31
v 2.169 9.247 -3.756
v 2.373 8.837 -4.111
v 2.505 8.322 -4.338
v 3.542 8.322 -3.542
v 3.356 8.837 -3.356
v 3.067 9.247 -3.067
v 2.702 9.509 -2.702
v 2.298 9.58 -2.298
v 2.702 1.191 -2.702
v 3.067 1.453 -3.067
v 3.356 1.863 -3.356
v 3.542 2.378 -3.542
v 1.697 8.5 -1.697
v 1.131 11.6 -1.131
v 1.697 11.6 -1.697
v 1.697 9.58 -1.697
v 3.606 7.75 -3.606
v 3.606 2.95 -3.606
v 2.298 1.1 -2.298
v 2.298 0.02 -2.298
v 1.697 0.02 -1.697
v 2.078 0.02 -1.2
v 2.815 0.02 -1.625
v 2.815 1.1 -1.625
v 4.417 2.95 -2.55
v 4.417 7.75 -2.55
v 2.078 9.58 -1.2
v 2.078 11.6 -1.2
v 1.386 11.6 -0.8
v 2.078 8.5 -1.2
v 4.338 2.378 -2.505
v 4.111 1.863 -2.373
v 3.756 1.453 -2.169
v 3.31 1.191 -1.911
v 2.815 9.58 -1.625
v 3.31 9.509 -1.911
v 3.756 9.247 -2.169
v 4.111 8.837 -2.373
v 4.338 8.322 -2.505
v 4.839 8.322 -1.297
v 4.585 8.837 -1.229
v 4.19 9.247 -1.123
v 3.691 9.509 -0.989
v 3.139 9.58 -0.841
v 3.691 1.191 -0.989
v 4.19 1.453 -1.123
v 4.585 1.863 -1.229
v 4.839 2.378 -1.297
v 2.318 8.5 -0.621
v 1.545 11.6 -0.414
v 2.318 11.6 -0.621
v 2.318 9.58 -0.621
v 4.926 7.75 -1.32
v 4.926 2.95 -1.32
v 3.139 1.1 -0.841
v 3.139 0.02 -0.841
v 2.318 0.02 -0.621
v 2.4 0.02 0
v 3.25 0.02 0
v 3.25 1.1 0
v 5.1 2.95 0
v 5.1 7.75 0
v 2.4 9.58 0
v 2.4 11.6 0
v 1.6 11.6 0
v 2.4 8.5 0
v 5.009 2.378 0
v 4.747 1.863 0
v 4.337 1.453 0
v 3.822 1.191 0
v 3.25 9.58 0
v 3.822 9.509 0
v 4.747 8.837 0
v 5.009 8.322 0
v -1.131 9.6 1.131
v -1.386 9.6 0.8
v -1.545 9.6 0.414
v -1.6 9.6 0
v -1.545 9.6 -0.414
v -1.386 9.6 -0.8
v -1.131 9.6 -1.131
v -0.8 9.6 -1.386
v -0.414 9.6 -1.545
v 0 9.6 -1.6
v 0.414 9.6 -1.545
v 0.8 9.6 -1.386
v 1.131 9.6 -1.131
v 1.386 9.6 -0.8
v 1.545 9.6 -0.414
v 1.6 9.6 0
v 0 9.6 0
v 4.926 7.7 1.32
v 4.417 7.7 2.55
v 3.606 7.7 3.606
v 2.55 7.7 4.417
v 1.32 7.7 4.926
v 0 7.7 5.1
v -1.32 7.7 4.926
v -2.55 7.7 4.417
v -3.606 7.7 3.606
v -4.417 7.7 2.55
v -4.926 7.7 1.32
v -5.1 7.7 0
v -4.926 7.7 -1.32
v -4.417 7.7 -2.55
v -3.606 7.7 -3.606
v -2.55 7.7 -4.417
v -1.32 7.7 -4.926
v 0 7.7 -5.1
v 1.32 7.7 -4.926
v 2.55 7.7 -4.417
v 3.606 7.7 -3.606
v 4.417 7.7 -2.55
v 4.926 7.7 -1.32
v 5.1 7.7 0
v 4.926 3 1.32
v 3.606 3 3.606
v 1.32 3 4.926
v -1.32 3 4.926
v -3.606 3 3.606
v -4.926 3 1.32
v -4.926 3 -1.32
v -3.606 3 -3.606
v -1.32 3 -4.926
v 1.32 3 -4.926
v 3.606 3 -3.606
v 4.926 3 -1.32
v 4.417 3 2.55
v 2.55 3 4.417
v 0 3 5.1
v -2.55 3 4.417
v -4.417 3 2.55
v -5.1 3 0
v -4.417 3 -2.55
v -2.55 3 -4.417
v 0 3 -5.1
v 2.55 3 -4.417
v 4.417 3 -2.55
v 5.1 3 0
v -0.8 9.6 1.386
v -1.131 9.6 1.131
v -0.414 9.6 1.545
v 0 9.6 1.6
v 0.414 9.6 1.545
v 0.8 9.6 1.386
v 1.131 9.6 1.131
v 1.386 9.6 0.8
v 1.545 9.6 0.414
v 2.318 0.02 0.621
v 2.078 0.02 1.2
v 3.139 0.02 0.841
v 2.815 0.02 1.625
v 3.139 1.1 0.841
v 2.815 1.1 1.625
v 2.318 9.58 0.621
v 2.078 9.58 1.2
v 2.318 11.6 0.621
v 2.078 11.6 1.2
v 1.545 11.6 0.414
v 1.386 11.6 0.8
v 2.318 8.5 0.621
v 2.078 8.5 1.2
v 1.697 9.58 1.697
v 2.298 1.1 2.298
v 1.697 0.02 1.697
v 1.697 8.5 1.697
v 1.131 11.6 1.131
v 1.697 11.6 1.697
v 2.298 0.02 2.298
v 1.2 0.02 2.078
v 1.625 0.02 2.815
v 1.625 1.1 2.815
v 1.2 9.58 2.078
v 1.2 11.6 2.078
v 0.8 11.6 1.386
v 1.2 8.5 2.078
v 0.621 9.58 2.318
v 0.841 1.1 3.139
v 0.621 0.02 2.318
v 0.621 8.5 2.318
v 0.414 11.6 1.545
v 0.621 11.6 2.318
v 0.841 0.02 3.139
v 0 0.02 2.4
v 0 0.02 3.25
v 0 1.1 3.25
v 0 9.58 2.4
v 0 11.6 2.4
v 0 11.6 1.6
v 0 8.5 2.4
v -0.621 9.58 2.318
v -0.841 1.1 3.139
v -0.621 0.02 2.318
v -0.621 8.5 2.318
v -0.414 11.6 1.545
v -0.621 11.6 2.318
v -0.841 0.02 3.139
v -1.2 0.02 2.078
v -1.625 0.02 2.815
v -1.625 1.1 2.815
v -1.2 9.58 2.078
v -1.2 11.6 2.078
v -0.8 11.6 1.386
v -1.2 8.5 2.078
v -1.697 9.58 1.697
v -2.298 1.1 2.298
v -1.697 0.02 1.697
v -1.697 8.5 1.697
v -1.131 11.6 1.131
v -1.697 11.6 1.697
v -2.298 0.02 2.298
v -2.078 0.02 1.2
v -2.815 0.02 1.625
v -2.815 1.1 1.625
v -2.078 9.58 1.2
v -2.078 11.6 1.2
v -1.386 11.6 0.8
v -2.078 8.5 1.2
v -2.318 9.58 0.621
v -3.139 1.1 0.841
v -2.318 0.02 0.621
v -2.318 8.5 0.621
v -1.545 11.6 0.414
v -2.318 11.6 0.621
v -3.139 0.02 0.841
v -2.4 0.02 0
v -3.25 0.02 0
v -3.25 1.1 0
v -2.4 9.58 0
v -2.4 11.6 0
v -1.6 11.6 0
v -2.4 8.5 0
v -2.318 9.58 -0.621
v -3.139 1.1 -0.841
v -2.318 0.02 -0.621
v -2.318 8.5 -0.621
v -1.545 11.6 -0.414
v -2.318 11.6 -0.621
v -3.139 0.02 -0.841
v -2.078 0.02 -1.2
v -2.815 0.02 -1.625
v -2.815 1.1 -1.625
v -2.078 9.58 -1.2
v -2.078 11.6 -1.2
v -1.386 11.6 -0.8
v -2.078 8.5 -1.2
v -1.697 9.58 -1.697
v -2.298 1.1 -2.298
v -1.697 0.02 -1.697
v -1.697 8.5 -1.697
v -1.131 11.6 -1.131
v -1.697 11.6 -1.697
v -2.298 0.02 -2.298
v -1.2 0.02 -2.078
v -1.625 0.02 -2.815
v -1.625 1.1 -2.815
v -1.2 9.58 -2.078
v -1.2 11.6 -2.078
v -0.8 11.6 -1.386
v -1.2 8.5 -2.078
v -0.621 9.58 -2.318
v -0.841 1.1 -3.139
v -0.621 0.02 -2.318
v -0.621 8.5 -2.318
v -0.414 11.6 -1.545
v -0.621 11.6 -2.318
v -0.841 0.02 -3.139
v 0 0.02 -2.4
v 0 0.02 -3.25
v 0 1.1 -3.25
v 0 9.58 -2.4
v 0 11.6 -2.4
v 0 11.6 -1.6
v 0 8.5 -2.4
v 0.621 9.58 -2.318
v 0.841 1.1 -3.139
v 0.621 0.02 -2.318
v 0.621 8.5 -2.318
v 0.414 11.6 -1.545
v 0.621 11.6 -2.318
v 0.841 0.02 -3.139
v 1.2 0.02 -2.078
v 1.625 0.02 -2.815
v 1.625 1.1 -2.815
v 1.2 9.58 -2.078
v 1.2 11.6 -2.078
v 0.8 11.6 -1.386
v 1.2 8.5 -2.078
v 1.697 9.58 -1.697
v 2.298 1.1 -2.298
v 1.697 0.02 -1.697
v 1.697 8.5 -1.697
v 1.131 11.6 -1.131
v 1.697 11.6 -1.697
v 2.298 0.02 -2.298
v 2.078 0.02 -1.2
v 2.815 0.02 -1.625
v 2.815 1.1 -1.625
v 2.078 9.58 -1.2
v 2.078 11.6 -1.2
v 1.386 11.6 -0.8
v 2.078 8.5 -1.2
v 2.318 9.58 -0.621
v 3.139 1.1 -0.841
v 2.318 0.02 -0.621
v 2.318 8.5 -0.621
v 1.545 11.6 -0.414
v 2.318 11.6 -0.621
v 3.139 0.02 -0.841
v 2.4 0.02 0
v 3.25 0.02 0
v 3.25 1.1 0
v 2.4 9.58 0
v 2.4 11.6 0
v 1.6 11.6 0
v 2.4 8.5 0
v -1.386 9.6 0.8
v -1.545 9.6 0.414
v -1.6 9.6 0
v -1.545 9.6 -0.414
v -1.386 9.6 -0.8
v -1.131 9.6 -1.131
v -0.8 9.6 -1.386
v -0.414 9.6 -1.545
v 0 9.6 -1.6
v 0.414 9.6 -1.545
v 0.8 9.6 -1.386
v 1.131 9.6 -1.131
v 1.386 9.6 -0.8
v 1.545 9.6 -0.414
v 1.6 9.6 0
vt 0.96 0.103
vt 0.963 0.103
vt 0.96 0.122
vt 0.963 0.103
vt 0.963 0.122
vt 0.96 0.122
vt 0.966 0.103
vt 0.967 0.103
vt 0.966 0.122
vt 0.967 0.103
vt 0.967 0.122
vt 0.966 0.122
vt 0.78 0.915
vt 0.771 0.915
vt 0.785 0.883
vt 0.771 0.915
vt 0.776 0.883
vt 0.785 0.883
vt 0.78 0.915
vt 0.766 0.944
vt 0.771 0.915
vt 0.766 0.944
vt 0.756 0.944
vt 0.771 0.915
vt 0.766 0.944
vt 0.743 0.967
vt 0.756 0.944
vt 0.743 0.967
vt 0.734 0.967
vt 0.756 0.944
vt 0.743 0.967
vt 0.714 0.982
vt 0.734 0.967
vt 0.714 0.982
vt 0.706 0.982
vt 0.734 0.967
vt 0.988 0.102
vt 0.983 0.103
vt 0.987 0.102
vt 0.983 0.103
vt 0.982 0.103
vt 0.987 0.102
vt 0.983 0.103
vt 0.975 0.103
vt 0.982 0.103
vt 0.975 0.103
vt 0.974 0.103
vt 0.982 0.103
vt 0.988 0.025
vt 0.987 0.025
vt 0.983 0.024
vt 0.987 0.025
vt 0.982 0.024
vt 0.983 0.024
vt 0.714 0.515
vt 0.743 0.53
vt 0.706 0.515
vt 0.743 0.53
vt 0.734 0.53
vt 0.706 0.515
vt 0.743 0.53
vt 0.766 0.553
vt 0.734 0.53
vt 0.766 0.553
vt 0.756 0.553
vt 0.734 0.53
vt 0.766 0.553
vt 0.78 0.582
vt 0.756 0.553
vt 0.78 0.582
vt 0.771 0.582
vt 0.756 0.553
vt 0.78 0.582
vt 0.785 0.614
vt 0.771 0.582
vt 0.785 0.614
vt 0.776 0.614
vt 0.771 0.582
vt 0.975 0.093
vt 0.975 0.014
vt 0.974 0.093
vt 0.975 0.014
vt 0.974 0.014
vt 0.974 0.093
vt 0.974 0.093
vt 0.975 0.093
vt 0.953 0.093
vt 0.968 0.122
vt 0.967 0.122
vt 0.975 0.122
vt 0.967 0.122
vt 0.974 0.122
vt 0.975 0.122
vt 0.975 0.122
vt 0.974 0.122
vt 0.975 0.103
vt 0.974 0.122
vt 0.974 0.103
vt 0.975 0.103
vt 0.785 0.616
vt 0.776 0.616
vt 0.785 0.614
vt 0.776 0.616
vt 0.776 0.614
vt 0.785 0.614
vt 0.983 0.024
vt 0.982 0.024
vt 0.983 0.014
vt 0.982 0.024
vt 0.982 0.014
vt 0.983 0.014
vt 0.983 0.014
vt 0.982 0.014
vt 0.975 0.014
vt 0.982 0.014
vt 0.974 0.014
vt 0.975 0.014
vt 0.982 0.014
vt 0.979 0.014
vt 0.974 0.014
vt 0.979 0.014
vt 0.972 0.014
vt 0.974 0.014
vt 0.982 0.024
vt 0.979 0.024
vt 0.982 0.014
vt 0.979 0.024
vt 0.979 0.014
vt 0.982 0.014
vt 0.776 0.616
vt 0.747 0.616
vt 0.776 0.614
vt 0.747 0.616
vt 0.747 0.614
vt 0.776 0.614
vt 0.974 0.122
vt 0.972 0.122
vt 0.974 0.103
vt 0.972 0.122
vt 0.972 0.103
vt 0.974 0.103
vt 0.967 0.122
vt 0.966 0.122
vt 0.974 0.122
vt 0.966 0.122
vt 0.972 0.122
vt 0.974 0.122
vt 0.972 0.093
vt 0.974 0.093
vt 0.953 0.093
vt 0.974 0.093
vt 0.974 0.014
vt 0.972 0.093
vt 0.974 0.014
vt 0.972 0.014
vt 0.972 0.093
vt 0.771 0.582
vt 0.776 0.614
vt 0.743 0.582
vt 0.776 0.614
vt 0.747 0.614
vt 0.743 0.582
vt 0.756 0.553
vt 0.771 0.582
vt 0.73 0.553
vt 0.771 0.582
vt 0.743 0.582
vt 0.73 0.553
vt 0.734 0.53
vt 0.756 0.553
vt 0.71 0.53
vt 0.756 0.553
vt 0.73 0.553
vt 0.71 0.53
vt 0.706 0.515
vt 0.734 0.53
vt 0.685 0.515
vt 0.734 0.53
vt 0.71 0.53
vt 0.685 0.515
vt 0.987 0.025
vt 0.983 0.025
vt 0.982 0.024
vt 0.983 0.025
vt 0.979 0.024
vt 0.982 0.024
vt 0.982 0.103
vt 0.974 0.103
vt 0.979 0.103
vt 0.974 0.103
vt 0.972 0.103
vt 0.979 0.103
vt 0.987 0.102
vt 0.982 0.103
vt 0.983 0.102
vt 0.982 0.103
vt 0.979 0.103
vt 0.983 0.102
vt 0.734 0.967
vt 0.706 0.982
vt 0.71 0.967
vt 0.706 0.982
vt 0.685 0.982
vt 0.71 0.967
vt 0.756 0.944
vt 0.734 0.967
vt 0.73 0.944
vt 0.734 0.967
vt 0.71 0.967
vt 0.73 0.944
vt 0.771 0.915
vt 0.756 0.944
vt 0.743 0.915
vt 0.756 0.944
vt 0.73 0.944
vt 0.743 0.915
vt 0.771 0.915
vt 0.743 0.915
vt 0.776 0.883
vt 0.743 0.915
vt 0.747 0.883
vt 0.776 0.883
vt 0.743 0.915
vt 0.698 0.915
vt 0.747 0.883
vt 0.698 0.915
vt 0.702 0.883
vt 0.747 0.883
vt 0.743 0.915
vt 0.73 0.944
vt 0.698 0.915
vt 0.73 0.944
vt 0.688 0.944
vt 0.698 0.915
vt 0.73 0.944
vt 0.71 0.967
vt 0.688 0.944
vt 0.71 0.967
vt 0.671 0.967
vt 0.688 0.944
vt 0.71 0.967
vt 0.685 0.982
vt 0.671 0.967
vt 0.685 0.982
vt 0.651 0.982
vt 0.671 0.967
vt 0.983 0.102
vt 0.979 0.103
vt 0.978 0.102
vt 0.979 0.103
vt 0.974 0.103
vt 0.978 0.102
vt 0.979 0.103
vt 0.972 0.103
vt 0.974 0.103
vt 0.972 0.103
vt 0.969 0.103
vt 0.974 0.103
vt 0.983 0.025
vt 0.978 0.025
vt 0.979 0.024
vt 0.978 0.025
vt 0.974 0.024
vt 0.979 0.024
vt 0.685 0.515
vt 0.71 0.53
vt 0.651 0.515
vt 0.71 0.53
vt 0.671 0.53
vt 0.651 0.515
vt 0.71 0.53
vt 0.73 0.553
vt 0.671 0.53
vt 0.73 0.553
vt 0.688 0.553
vt 0.671 0.53
vt 0.73 0.553
vt 0.743 0.582
vt 0.688 0.553
vt 0.743 0.582
vt 0.698 0.582
vt 0.688 0.553
vt 0.743 0.582
vt 0.747 0.614
vt 0.698 0.582
vt 0.747 0.614
vt 0.702 0.614
vt 0.698 0.582
vt 0.972 0.093
vt 0.972 0.014
vt 0.969 0.093
vt 0.972 0.014
vt 0.969 0.014
vt 0.969 0.093
vt 0.969 0.093
vt 0.972 0.093
vt 0.953 0.093
vt 0.966 0.122
vt 0.963 0.122
vt 0.972 0.122
vt 0.963 0.122
vt 0.969 0.122
vt 0.972 0.122
vt 0.972 0.122
vt 0.969 0.122
vt 0.972 0.103
vt 0.969 0.122
vt 0.969 0.103
vt 0.972 0.103
vt 0.747 0.616
vt 0.702 0.616
vt 0.747 0.614
vt 0.702 0.616
vt 0.702 0.614
vt 0.747 0.614
vt 0.979 0.024
vt 0.974 0.024
vt 0.979 0.014
vt 0.974 0.024
vt 0.974 0.014
vt 0.979 0.014
vt 0.979 0.014
vt 0.974 0.014
vt 0.972 0.014
vt 0.974 0.014
vt 0.969 0.014
vt 0.972 0.014
vt 0.974 0.014
vt 0.968 0.014
vt 0.969 0.014
vt 0.968 0.014
vt 0.964 0.014
vt 0.969 0.014
vt 0.974 0.024
vt 0.968 0.024
vt 0.974 0.014
vt 0.968 0.024
vt 0.968 0.014
vt 0.974 0.014
vt 0.702 0.616
vt 0.642 0.616
vt 0.702 0.614
vt 0.642 0.616
vt 0.642 0.614
vt 0.702 0.614
vt 0.969 0.122
vt 0.964 0.122
vt 0.969 0.103
vt 0.964 0.122
vt 0.964 0.103
vt 0.969 0.103
vt 0.963 0.122
vt 0.96 0.122
vt 0.969 0.122
vt 0.96 0.122
vt 0.964 0.122
vt 0.969 0.122
vt 0.964 0.093
vt 0.969 0.093
vt 0.953 0.093
vt 0.969 0.093
vt 0.969 0.014
vt 0.964 0.093
vt 0.969 0.014
vt 0.964 0.014
vt 0.964 0.093
vt 0.698 0.582
vt 0.702 0.614
vt 0.64 0.582
vt 0.702 0.614
vt 0.642 0.614
vt 0.64 0.582
vt 0.688 0.553
vt 0.698 0.582
vt 0.632 0.553
vt 0.698 0.582
vt 0.64 0.582
vt 0.632 0.553
vt 0.671 0.53
vt 0.688 0.553
vt 0.621 0.53
vt 0.688 0.553
vt 0.632 0.553
vt 0.621 0.53
vt 0.651 0.515
vt 0.671 0.53
vt 0.607 0.515
vt 0.671 0.53
vt 0.621 0.53
vt 0.607 0.515
vt 0.978 0.025
vt 0.97 0.025
vt 0.974 0.024
vt 0.97 0.025
vt 0.968 0.024
vt 0.974 0.024
vt 0.974 0.103
vt 0.969 0.103
vt 0.968 0.103
vt 0.969 0.103
vt 0.964 0.103
vt 0.968 0.103
vt 0.978 0.102
vt 0.974 0.103
vt 0.97 0.102
vt 0.974 0.103
vt 0.968 0.103
vt 0.97 0.102
vt 0.671 0.967
vt 0.651 0.982
vt 0.621 0.967
vt 0.651 0.982
vt 0.607 0.982
vt 0.621 0.967
vt 0.688 0.944
vt 0.671 0.967
vt 0.632 0.944
vt 0.671 0.967
vt 0.621 0.967
vt 0.632 0.944
vt 0.698 0.915
vt 0.688 0.944
vt 0.64 0.915
vt 0.688 0.944
vt 0.632 0.944
vt 0.64 0.915
vt 0.698 0.915
vt 0.64 0.915
vt 0.702 0.883
vt 0.64 0.915
vt 0.642 0.883
vt 0.702 0.883
vt 0.64 0.915
vt 0.572 0.915
vt 0.642 0.883
vt 0.572 0.915
vt 0.573 0.883
vt 0.642 0.883
vt 0.64 0.915
vt 0.632 0.944
vt 0.572 0.915
vt 0.632 0.944
vt 0.568 0.944
vt 0.572 0.915
vt 0.632 0.944
vt 0.621 0.967
vt 0.568 0.944
vt 0.621 0.967
vt 0.562 0.967
vt 0.568 0.944
vt 0.621 0.967
vt 0.607 0.982
vt 0.562 0.967
vt 0.607 0.982
vt 0.555 0.982
vt 0.562 0.967
vt 0.97 0.102
vt 0.968 0.103
vt 0.962 0.102
vt 0.968 0.103
vt 0.961 0.103
vt 0.962 0.102
vt 0.968 0.103
vt 0.964 0.103
vt 0.961 0.103
vt 0.964 0.103
vt 0.959 0.103
vt 0.961 0.103
vt 0.97 0.025
vt 0.962 0.025
vt 0.968 0.024
vt 0.962 0.025
vt 0.961 0.024
vt 0.968 0.024
vt 0.607 0.515
vt 0.621 0.53
vt 0.555 0.515
vt 0.621 0.53
vt 0.562 0.53
vt 0.555 0.515
vt 0.621 0.53
vt 0.632 0.553
vt 0.562 0.53
vt 0.632 0.553
vt 0.568 0.553
vt 0.562 0.53
vt 0.632 0.553
vt 0.64 0.582
vt 0.568 0.553
vt 0.64 0.582
vt 0.572 0.582
vt 0.568 0.553
vt 0.64 0.582
vt 0.642 0.614
vt 0.572 0.582
vt 0.642 0.614
vt 0.573 0.614
vt 0.572 0.582
vt 0.964 0.093
vt 0.964 0.014
vt 0.959 0.093
vt 0.964 0.014
vt 0.959 0.014
vt 0.959 0.093
vt 0.959 0.093
vt 0.964 0.093
vt 0.953 0.093
vt 0.96 0.122
vt 0.957 0.122
vt 0.964 0.122
vt 0.957 0.122
vt 0.959 0.122
vt 0.964 0.122
vt 0.964 0.122
vt 0.959 0.122
vt 0.964 0.103
vt 0.959 0.122
vt 0.959 0.103
vt 0.964 0.103
vt 0.642 0.616
vt 0.573 0.616
vt 0.642 0.614
vt 0.573 0.616
vt 0.573 0.614
vt 0.642 0.614
vt 0.968 0.024
vt 0.961 0.024
vt 0.968 0.014
vt 0.961 0.024
vt 0.961 0.014
vt 0.968 0.014
vt 0.968 0.014
vt 0.961 0.014
vt 0.964 0.014
vt 0.961 0.014
vt 0.959 0.014
vt 0.964 0.014
vt 0.961 0.014
vt 0.953 0.014
vt 0.959 0.014
vt 0.953 0.014
vt 0.953 0.014
vt 0.959 0.014
vt 0.961 0.024
vt 0.953 0.024
vt 0.961 0.014
vt 0.953 0.024
vt 0.953 0.014
vt 0.961 0.014
vt 0.573 0.616
vt 0.499 0.616
vt 0.573 0.614
vt 0.499 0.616
vt 0.499 0.614
vt 0.573 0.614
vt 0.959 0.122
vt 0.953 0.122
vt 0.959 0.103
vt 0.953 0.122
vt 0.953 0.103
vt 0.959 0.103
vt 0.957 0.122
vt 0.953 0.122
vt 0.959 0.122
vt 0.953 0.122
vt 0.953 0.122
vt 0.959 0.122
vt 0.953 0.093
vt 0.959 0.093
vt 0.953 0.093
vt 0.959 0.093
vt 0.959 0.014
vt 0.953 0.093
vt 0.959 0.014
vt 0.953 0.014
vt 0.953 0.093
vt 0.572 0.582
vt 0.573 0.614
vt 0.499 0.582
vt 0.573 0.614
vt 0.499 0.614
vt 0.499 0.582
vt 0.568 0.553
vt 0.572 0.582
vt 0.499 0.553
vt 0.572 0.582
vt 0.499 0.582
vt 0.499 0.553
vt 0.562 0.53
vt 0.568 0.553
vt 0.499 0.53
vt 0.568 0.553
vt 0.499 0.553
vt 0.499 0.53
vt 0.555 0.515
vt 0.562 0.53
vt 0.499 0.515
vt 0.562 0.53
vt 0.499 0.53
vt 0.499 0.515
vt 0.962 0.025
vt 0.953 0.025
vt 0.961 0.024
vt 0.953 0.025
vt 0.953 0.024
vt 0.961 0.024
vt 0.961 0.103
vt 0.959 0.103
vt 0.953 0.103
vt 0.959 0.103
vt 0.953 0.103
vt 0.953 0.103
vt 0.962 0.102
vt 0.961 0.103
vt 0.953 0.102
vt 0.961 0.103
vt 0.953 0.103
vt 0.953 0.102
vt 0.562 0.967
vt 0.555 0.982
vt 0.499 0.967
vt 0.555 0.982
vt 0.499 0.982
vt 0.499 0.967
vt 0.568 0.944
vt 0.562 0.967
vt 0.499 0.944
vt 0.562 0.967
vt 0.499 0.967
vt 0.499 0.944
vt 0.572 0.915
vt 0.568 0.944
vt 0.499 0.915
vt 0.568 0.944
vt 0.499 0.944
vt 0.499 0.915
vt 0.572 0.915
vt 0.499 0.915
vt 0.573 0.883
vt 0.499 0.915
vt 0.499 0.883
vt 0.573 0.883
vt 0.499 0.915
vt 0.427 0.915
vt 0.499 0.883
vt 0.427 0.915
vt 0.425 0.883
vt 0.499 0.883
vt 0.499 0.915
vt 0.499 0.944
vt 0.427 0.915
vt 0.499 0.944
vt 0.431 0.944
vt 0.427 0.915
vt 0.499 0.944
vt 0.499 0.967
vt 0.431 0.944
vt 0.499 0.967
vt 0.436 0.967
vt 0.431 0.944
vt 0.499 0.967
vt 0.499 0.982
vt 0.436 0.967
vt 0.499 0.982
vt 0.444 0.982
vt 0.436 0.967
vt 0.953 0.102
vt 0.953 0.103
vt 0.944 0.102
vt 0.953 0.103
vt 0.945 0.103
vt 0.944 0.102
vt 0.953 0.103
vt 0.953 0.103
vt 0.945 0.103
vt 0.953 0.103
vt 0.947 0.103
vt 0.945 0.103
vt 0.953 0.025
vt 0.944 0.025
vt 0.953 0.024
vt 0.944 0.025
vt 0.945 0.024
vt 0.953 0.024
vt 0.499 0.515
vt 0.499 0.53
vt 0.444 0.515
vt 0.499 0.53
vt 0.436 0.53
vt 0.444 0.515
vt 0.499 0.53
vt 0.499 0.553
vt 0.436 0.53
vt 0.499 0.553
vt 0.431 0.553
vt 0.436 0.53
vt 0.499 0.553
vt 0.499 0.582
vt 0.431 0.553
vt 0.499 0.582
vt 0.427 0.582
vt 0.431 0.553
vt 0.499 0.582
vt 0.499 0.614
vt 0.427 0.582
vt 0.499 0.614
vt 0.425 0.614
vt 0.427 0.582
vt 0.953 0.093
vt 0.953 0.014
vt 0.947 0.093
vt 0.953 0.014
vt 0.947 0.014
vt 0.947 0.093
vt 0.947 0.093
vt 0.953 0.093
vt 0.953 0.093
vt 0.953 0.122
vt 0.949 0.122
vt 0.953 0.122
vt 0.949 0.122
vt 0.947 0.122
vt 0.953 0.122
vt 0.953 0.122
vt 0.947 0.122
vt 0.953 0.103
vt 0.947 0.122
vt 0.947 0.103
vt 0.953 0.103
vt 0.499 0.616
vt 0.425 0.616
vt 0.499 0.614
vt 0.425 0.616
vt 0.425 0.614
vt 0.499 0.614
vt 0.953 0.024
vt 0.945 0.024
vt 0.953 0.014
vt 0.945 0.024
vt 0.945 0.014
vt 0.953 0.014
vt 0.953 0.014
vt 0.945 0.014
vt 0.953 0.014
vt 0.945 0.014
vt 0.947 0.014
vt 0.953 0.014
vt 0.945 0.014
vt 0.938 0.014
vt 0.947 0.014
vt 0.938 0.014
vt 0.942 0.014
vt 0.947 0.014
vt 0.945 0.024
vt 0.938 0.024
vt 0.945 0.014
vt 0.938 0.024
vt 0.938 0.014
vt 0.945 0.014
vt 0.425 0.616
vt 0.356 0.616
vt 0.425 0.614
vt 0.356 0.616
vt 0.356 0.614
vt 0.425 0.614
vt 0.947 0.122
vt 0.942 0.122
vt 0.947 0.103
vt 0.942 0.122
vt 0.942 0.103
vt 0.947 0.103
vt 0.949 0.122
vt 0.945 0.122
vt 0.947 0.122
vt 0.945 0.122
vt 0.942 0.122
vt 0.947 0.122
vt 0.942 0.093
vt 0.947 0.093
vt 0.953 0.093
vt 0.947 0.093
vt 0.947 0.014
vt 0.942 0.093
vt 0.947 0.014
vt 0.942 0.014
vt 0.942 0.093
vt 0.427 0.582
vt 0.425 0.614
vt 0.359 0.582
vt 0.425 0.614
vt 0.356 0.614
vt 0.359 0.582
vt 0.431 0.553
vt 0.427 0.582
vt 0.366 0.553
vt 0.427 0.582
vt 0.359 0.582
vt 0.366 0.553
vt 0.436 0.53
vt 0.431 0.553
vt 0.378 0.53
vt 0.431 0.553
vt 0.366 0.553
vt 0.378 0.53
vt 0.444 0.515
vt 0.436 0.53
vt 0.392 0.515
vt 0.436 0.53
vt 0.378 0.53
vt 0.392 0.515
vt 0.944 0.025
vt 0.935 0.025
vt 0.945 0.024
vt 0.935 0.025
vt 0.938 0.024
vt 0.945 0.024
vt 0.945 0.103
vt 0.947 0.103
vt 0.938 0.103
vt 0.947 0.103
vt 0.942 0.103
vt 0.938 0.103
vt 0.944 0.102
vt 0.945 0.103
vt 0.935 0.102
vt 0.945 0.103
vt 0.938 0.103
vt 0.935 0.102
vt 0.436 0.967
vt 0.444 0.982
vt 0.378 0.967
vt 0.444 0.982
vt 0.392 0.982
vt 0.378 0.967
vt 0.431 0.944
vt 0.436 0.967
vt 0.366 0.944
vt 0.436 0.967
vt 0.378 0.967
vt 0.366 0.944
vt 0.427 0.915
vt 0.431 0.944
vt 0.359 0.915
vt 0.431 0.944
vt 0.366 0.944
vt 0.359 0.915
vt 0.427 0.915
vt 0.359 0.915
vt 0.425 0.883
vt 0.359 0.915
vt 0.356 0.883
vt 0.425 0.883
vt 0.359 0.915
vt 0.301 0.915
vt 0.356 0.883
vt 0.301 0.915
vt 0.297 0.883
vt 0.356 0.883
vt 0.359 0.915
vt 0.366 0.944
vt 0.301 0.915
vt 0.366 0.944
vt 0.311 0.944
vt 0.301 0.915
vt 0.366 0.944
vt 0.378 0.967
vt 0.311 0.944
vt 0.378 0.967
vt 0.327 0.967
vt 0.311 0.944
vt 0.378 0.967
vt 0.392 0.982
vt 0.327 0.967
vt 0.392 0.982
vt 0.348 0.982
vt 0.327 0.967
vt 0.935 0.102
vt 0.938 0.103
vt 0.928 0.102
vt 0.938 0.103
vt 0.931 0.103
vt 0.928 0.102
vt 0.938 0.103
vt 0.942 0.103
vt 0.931 0.103
vt 0.942 0.103
vt 0.937 0.103
vt 0.931 0.103
vt 0.935 0.025
vt 0.928 0.025
vt 0.938 0.024
vt 0.928 0.025
vt 0.931 0.024
vt 0.938 0.024
vt 0.392 0.515
vt 0.378 0.53
vt 0.348 0.515
vt 0.378 0.53
vt 0.327 0.53
vt 0.348 0.515
vt 0.378 0.53
vt 0.366 0.553
vt 0.327 0.53
vt 0.366 0.553
vt 0.311 0.553
vt 0.327 0.53
vt 0.366 0.553
vt 0.359 0.582
vt 0.311 0.553
vt 0.359 0.582
vt 0.301 0.582
vt 0.311 0.553
vt 0.359 0.582
vt 0.356 0.614
vt 0.301 0.582
vt 0.356 0.614
vt 0.297 0.614
vt 0.301 0.582
vt 0.942 0.093
vt 0.942 0.014
vt 0.937 0.093
vt 0.942 0.014
vt 0.937 0.014
vt 0.937 0.093
vt 0.937 0.093
vt 0.942 0.093
vt 0.953 0.093
vt 0.945 0.122
vt 0.942 0.122
vt 0.942 0.122
vt 0.942 0.122
vt 0.937 0.122
vt 0.942 0.122
vt 0.942 0.122
vt 0.937 0.122
vt 0.942 0.103
vt 0.937 0.122
vt 0.937 0.103
vt 0.942 0.103
vt 0.356 0.616
vt 0.297 0.616
vt 0.356 0.614
vt 0.297 0.616
vt 0.297 0.614
vt 0.356 0.614
vt 0.938 0.024
vt 0.931 0.024
vt 0.938 0.014
vt 0.931 0.024
vt 0.931 0.014
vt 0.938 0.014
vt 0.938 0.014
vt 0.931 0.014
vt 0.942 0.014
vt 0.931 0.014
vt 0.937 0.014
vt 0.942 0.014
vt 0.931 0.014
vt 0.927 0.014
vt 0.937 0.014
vt 0.927 0.014
vt 0.933 0.014
vt 0.937 0.014
vt 0.931 0.024
vt 0.927 0.024
vt 0.931 0.014
vt 0.927 0.024
vt 0.927 0.014
vt 0.931 0.014
vt 0.297 0.616
vt 0.252 0.616
vt 0.297 0.614
vt 0.252 0.616
vt 0.252 0.614
vt 0.297 0.614
vt 0.937 0.122
vt 0.933 0.122
vt 0.937 0.103
vt 0.933 0.122
vt 0.933 0.103
vt 0.937 0.103
vt 0.942 0.122
vt 0.94 0.122
vt 0.937 0.122
vt 0.94 0.122
vt 0.933 0.122
vt 0.937 0.122
vt 0.933 0.093
vt 0.937 0.093
vt 0.953 0.093
vt 0.937 0.093
vt 0.937 0.014
vt 0.933 0.093
vt 0.937 0.014
vt 0.933 0.014
vt 0.933 0.093
vt 0.301 0.582
vt 0.297 0.614
vt 0.256 0.582
vt 0.297 0.614
vt 0.252 0.614
vt 0.256 0.582
vt 0.311 0.553
vt 0.301 0.582
vt 0.269 0.553
vt 0.301 0.582
vt 0.256 0.582
vt 0.269 0.553
vt 0.327 0.53
vt 0.311 0.553
vt 0.289 0.53
vt 0.311 0.553
vt 0.269 0.553
vt 0.289 0.53
vt 0.348 0.515
vt 0.327 0.53
vt 0.314 0.515
vt 0.327 0.53
vt 0.289 0.53
vt 0.314 0.515
vt 0.928 0.025
vt 0.922 0.025
vt 0.931 0.024
vt 0.922 0.025
vt 0.927 0.024
vt 0.931 0.024
vt 0.931 0.103
vt 0.937 0.103
vt 0.927 0.103
vt 0.937 0.103
vt 0.933 0.103
vt 0.927 0.103
vt 0.928 0.102
vt 0.931 0.103
vt 0.922 0.102
vt 0.931 0.103
vt 0.927 0.103
vt 0.922 0.102
vt 0.327 0.967
vt 0.348 0.982
vt 0.289 0.967
vt 0.348 0.982
vt 0.314 0.982
vt 0.289 0.967
vt 0.311 0.944
vt 0.327 0.967
vt 0.269 0.944
vt 0.327 0.967
vt 0.289 0.967
vt 0.269 0.944
vt 0.301 0.915
vt 0.311 0.944
vt 0.256 0.915
vt 0.311 0.944
vt 0.269 0.944
vt 0.256 0.915
vt 0.301 0.915
vt 0.256 0.915
vt 0.297 0.883
vt 0.256 0.915
vt 0.252 0.883
vt 0.297 0.883
vt 0.256 0.915
vt 0.228 0.915
vt 0.252 0.883
vt 0.228 0.915
vt 0.223 0.883
vt 0.252 0.883
vt 0.256 0.915
vt 0.269 0.944
vt 0.228 0.915
vt 0.269 0.944
vt 0.242 0.944
vt 0.228 0.915
vt 0.269 0.944
vt 0.289 0.967
vt 0.242 0.944
vt 0.289 0.967
vt 0.265 0.967
vt 0.242 0.944
vt 0.289 0.967
vt 0.314 0.982
vt 0.265 0.967
vt 0.314 0.982
vt 0.292 0.982
vt 0.265 0.967
vt 0.922 0.102
vt 0.927 0.103
vt 0.919 0.102
vt 0.927 0.103
vt 0.924 0.103
vt 0.919 0.102
vt 0.927 0.103
vt 0.933 0.103
vt 0.924 0.103
vt 0.933 0.103
vt 0.931 0.103
vt 0.924 0.103
vt 0.922 0.025
vt 0.919 0.025
vt 0.927 0.024
vt 0.919 0.025
vt 0.924 0.024
vt 0.927 0.024
vt 0.314 0.515
vt 0.289 0.53
vt 0.292 0.515
vt 0.289 0.53
vt 0.265 0.53
vt 0.292 0.515
vt 0.289 0.53
vt 0.269 0.553
vt 0.265 0.53
vt 0.269 0.553
vt 0.242 0.553
vt 0.265 0.53
vt 0.269 0.553
vt 0.256 0.582
vt 0.242 0.553
vt 0.256 0.582
vt 0.228 0.582
vt 0.242 0.553
vt 0.256 0.582
vt 0.252 0.614
vt 0.228 0.582
vt 0.252 0.614
vt 0.223 0.614
vt 0.228 0.582
vt 0.933 0.093
vt 0.933 0.014
vt 0.931 0.093
vt 0.933 0.014
vt 0.931 0.014
vt 0.931 0.093
vt 0.931 0.093
vt 0.933 0.093
vt 0.953 0.093
vt 0.94 0.122
vt 0.938 0.122
vt 0.933 0.122
vt 0.938 0.122
vt 0.931 0.122
vt 0.933 0.122
vt 0.933 0.122
vt 0.931 0.122
vt 0.933 0.103
vt 0.931 0.122
vt 0.931 0.103
vt 0.933 0.103
vt 0.252 0.616
vt 0.223 0.616
vt 0.252 0.614
vt 0.223 0.616
vt 0.223 0.614
vt 0.252 0.614
vt 0.927 0.024
vt 0.924 0.024
vt 0.927 0.014
vt 0.924 0.024
vt 0.924 0.014
vt 0.927 0.014
vt 0.927 0.014
vt 0.924 0.014
vt 0.933 0.014
vt 0.924 0.014
vt 0.931 0.014
vt 0.933 0.014
vt 0.924 0.014
vt 0.923 0.014
vt 0.931 0.014
vt 0.923 0.014
vt 0.931 0.014
vt 0.931 0.014
vt 0.924 0.024
vt 0.923 0.024
vt 0.924 0.014
vt 0.923 0.024
vt 0.923 0.014
vt 0.924 0.014
vt 0.223 0.616
vt 0.213 0.616
vt 0.223 0.614
vt 0.213 0.616
vt 0.213 0.614
vt 0.223 0.614
vt 0.931 0.122
vt 0.931 0.122
vt 0.931 0.103
vt 0.931 0.122
vt 0.931 0.103
vt 0.931 0.103
vt 0.938 0.122
vt 0.938 0.122
vt 0.931 0.122
vt 0.938 0.122
vt 0.931 0.122
vt 0.931 0.122
vt 0.931 0.093
vt 0.931 0.093
vt 0.953 0.093
vt 0.931 0.093
vt 0.931 0.014
vt 0.931 0.093
vt 0.931 0.014
vt 0.931 0.014
vt 0.931 0.093
vt 0.228 0.582
vt 0.223 0.614
vt 0.219 0.582
vt 0.223 0.614
vt 0.213 0.614
vt 0.219 0.582
vt 0.242 0.553
vt 0.228 0.582
vt 0.233 0.553
vt 0.228 0.582
vt 0.219 0.582
vt 0.233 0.553
vt 0.265 0.53
vt 0.242 0.553
vt 0.256 0.53
vt 0.242 0.553
vt 0.233 0.553
vt 0.256 0.53
vt 0.292 0.515
vt 0.265 0.53
vt 0.285 0.515
vt 0.265 0.53
vt 0.256 0.53
vt 0.285 0.515
vt 0.919 0.025
vt 0.917 0.025
vt 0.924 0.024
vt 0.917 0.025
vt 0.923 0.024
vt 0.924 0.024
vt 0.924 0.103
vt 0.931 0.103
vt 0.923 0.103
vt 0.931 0.103
vt 0.931 0.103
vt 0.923 0.103
vt 0.919 0.102
vt 0.924 0.103
vt 0.917 0.102
vt 0.924 0.103
vt 0.923 0.103
vt 0.917 0.102
vt 0.265 0.967
vt 0.292 0.982
vt 0.256 0.967
vt 0.292 0.982
vt 0.285 0.982
vt 0.256 0.967
vt 0.242 0.944
vt 0.265 0.967
vt 0.233 0.944
vt 0.265 0.967
vt 0.256 0.967
vt 0.233 0.944
vt 0.228 0.915
vt 0.242 0.944
vt 0.219 0.915
vt 0.242 0.944
vt 0.233 0.944
vt 0.219 0.915
vt 0.228 0.915
vt 0.219 0.915
vt 0.223 0.883
vt 0.219 0.915
vt 0.213 0.883
vt 0.223 0.883
vt 0.78 0.419
vt 0.77 0.419
vt 0.785 0.387
vt 0.77 0.419
vt 0.775 0.387
vt 0.785 0.387
vt 0.78 0.419
vt 0.765 0.448
vt 0.77 0.419
vt 0.765 0.448
vt 0.756 0.448
vt 0.77 0.419
vt 0.765 0.448
vt 0.742 0.471
vt 0.756 0.448
vt 0.742 0.471
vt 0.734 0.471
vt 0.756 0.448
vt 0.742 0.471
vt 0.713 0.485
vt 0.734 0.471
vt 0.713 0.485
vt 0.706 0.485
vt 0.734 0.471
vt 0.917 0.102
vt 0.923 0.103
vt 0.919 0.102
vt 0.923 0.103
vt 0.924 0.103
vt 0.919 0.102
vt 0.923 0.103
vt 0.931 0.103
vt 0.924 0.103
vt 0.931 0.103
vt 0.931 0.103
vt 0.924 0.103
vt 0.917 0.025
vt 0.919 0.025
vt 0.923 0.024
vt 0.919 0.025
vt 0.924 0.024
vt 0.923 0.024
vt 0.713 0.019
vt 0.742 0.034
vt 0.706 0.019
vt 0.742 0.034
vt 0.734 0.034
vt 0.706 0.019
vt 0.742 0.034
vt 0.765 0.057
vt 0.734 0.034
vt 0.765 0.057
vt 0.756 0.057
vt 0.734 0.034
vt 0.765 0.057
vt 0.78 0.085
vt 0.756 0.057
vt 0.78 0.085
vt 0.77 0.085
vt 0.756 0.057
vt 0.78 0.085
vt 0.785 0.117
vt 0.77 0.085
vt 0.785 0.117
vt 0.775 0.117
vt 0.77 0.085
vt 0.931 0.093
vt 0.931 0.014
vt 0.931 0.093
vt 0.931 0.014
vt 0.931 0.014
vt 0.931 0.093
vt 0.931 0.093
vt 0.931 0.093
vt 0.953 0.093
vt 0.938 0.122
vt 0.938 0.122
vt 0.931 0.122
vt 0.938 0.122
vt 0.931 0.122
vt 0.931 0.122
vt 0.931 0.122
vt 0.931 0.122
vt 0.931 0.103
vt 0.931 0.122
vt 0.931 0.103
vt 0.931 0.103
vt 0.785 0.12
vt 0.775 0.12
vt 0.785 0.117
vt 0.775 0.12
vt 0.775 0.117
vt 0.785 0.117
vt 0.923 0.024
vt 0.924 0.024
vt 0.923 0.014
vt 0.924 0.024
vt 0.924 0.014
vt 0.923 0.014
vt 0.923 0.014
vt 0.924 0.014
vt 0.931 0.014
vt 0.924 0.014
vt 0.931 0.014
vt 0.931 0.014
vt 0.924 0.014
vt 0.927 0.014
vt 0.931 0.014
vt 0.927 0.014
vt 0.933 0.014
vt 0.931 0.014
vt 0.924 0.024
vt 0.927 0.024
vt 0.924 0.014
vt 0.927 0.024
vt 0.927 0.014
vt 0.924 0.014
vt 0.775 0.12
vt 0.747 0.12
vt 0.775 0.117
vt 0.747 0.12
vt 0.747 0.117
vt 0.775 0.117
vt 0.931 0.122
vt 0.933 0.122
vt 0.931 0.103
vt 0.933 0.122
vt 0.933 0.103
vt 0.931 0.103
vt 0.938 0.122
vt 0.94 0.122
vt 0.931 0.122
vt 0.94 0.122
vt 0.933 0.122
vt 0.931 0.122
vt 0.933 0.093
vt 0.931 0.093
vt 0.953 0.093
vt 0.931 0.093
vt 0.931 0.014
vt 0.933 0.093
vt 0.931 0.014
vt 0.933 0.014
vt 0.933 0.093
vt 0.77 0.085
vt 0.775 0.117
vt 0.742 0.085
vt 0.775 0.117
vt 0.747 0.117
vt 0.742 0.085
vt 0.756 0.057
vt 0.77 0.085
vt 0.73 0.057
vt 0.77 0.085
vt 0.742 0.085
vt 0.73 0.057
vt 0.734 0.034
vt 0.756 0.057
vt 0.71 0.034
vt 0.756 0.057
vt 0.73 0.057
vt 0.71 0.034
vt 0.706 0.019
vt 0.734 0.034
vt 0.685 0.019
vt 0.734 0.034
vt 0.71 0.034
vt 0.685 0.019
vt 0.919 0.025
vt 0.922 0.025
vt 0.924 0.024
vt 0.922 0.025
vt 0.927 0.024
vt 0.924 0.024
vt 0.924 0.103
vt 0.931 0.103
vt 0.927 0.103
vt 0.931 0.103
vt 0.933 0.103
vt 0.927 0.103
vt 0.919 0.102
vt 0.924 0.103
vt 0.922 0.102
vt 0.924 0.103
vt 0.927 0.103
vt 0.922 0.102
vt 0.734 0.471
vt 0.706 0.485
vt 0.71 0.471
vt 0.706 0.485
vt 0.685 0.485
vt 0.71 0.471
vt 0.756 0.448
vt 0.734 0.471
vt 0.73 0.448
vt 0.734 0.471
vt 0.71 0.471
vt 0.73 0.448
vt 0.77 0.419
vt 0.756 0.448
vt 0.742 0.419
vt 0.756 0.448
vt 0.73 0.448
vt 0.742 0.419
vt 0.77 0.419
vt 0.742 0.419
vt 0.775 0.387
vt 0.742 0.419
vt 0.747 0.387
vt 0.775 0.387
vt 0.742 0.419
vt 0.698 0.419
vt 0.747 0.387
vt 0.698 0.419
vt 0.701 0.387
vt 0.747 0.387
vt 0.742 0.419
vt 0.73 0.448
vt 0.698 0.419
vt 0.73 0.448
vt 0.687 0.448
vt 0.698 0.419
vt 0.73 0.448
vt 0.71 0.471
vt 0.687 0.448
vt 0.71 0.471
vt 0.671 0.471
vt 0.687 0.448
vt 0.71 0.471
vt 0.685 0.485
vt 0.671 0.471
vt 0.685 0.485
vt 0.651 0.485
vt 0.671 0.471
vt 0.922 0.102
vt 0.927 0.103
vt 0.928 0.102
vt 0.927 0.103
vt 0.931 0.103
vt 0.928 0.102
vt 0.927 0.103
vt 0.933 0.103
vt 0.931 0.103
vt 0.933 0.103
vt 0.937 0.103
vt 0.931 0.103
vt 0.922 0.025
vt 0.928 0.025
vt 0.927 0.024
vt 0.928 0.025
vt 0.931 0.024
vt 0.927 0.024
vt 0.685 0.019
vt 0.71 0.034
vt 0.651 0.019
vt 0.71 0.034
vt 0.671 0.034
vt 0.651 0.019
vt 0.71 0.034
vt 0.73 0.057
vt 0.671 0.034
vt 0.73 0.057
vt 0.687 0.057
vt 0.671 0.034
vt 0.73 0.057
vt 0.742 0.085
vt 0.687 0.057
vt 0.742 0.085
vt 0.698 0.085
vt 0.687 0.057
vt 0.742 0.085
vt 0.747 0.117
vt 0.698 0.085
vt 0.747 0.117
vt 0.701 0.117
vt 0.698 0.085
vt 0.933 0.093
vt 0.933 0.014
vt 0.937 0.093
vt 0.933 0.014
vt 0.937 0.014
vt 0.937 0.093
vt 0.937 0.093
vt 0.933 0.093
vt 0.953 0.093
vt 0.94 0.122
vt 0.942 0.122
vt 0.933 0.122
vt 0.942 0.122
vt 0.937 0.122
vt 0.933 0.122
vt 0.933 0.122
vt 0.937 0.122
vt 0.933 0.103
vt 0.937 0.122
vt 0.937 0.103
vt 0.933 0.103
vt 0.747 0.12
vt 0.701 0.12
vt 0.747 0.117
vt 0.701 0.12
vt 0.701 0.117
vt 0.747 0.117
vt 0.927 0.024
vt 0.931 0.024
vt 0.927 0.014
vt 0.931 0.024
vt 0.931 0.014
vt 0.927 0.014
vt 0.927 0.014
vt 0.931 0.014
vt 0.933 0.014
vt 0.931 0.014
vt 0.937 0.014
vt 0.933 0.014
vt 0.931 0.014
vt 0.938 0.014
vt 0.937 0.014
vt 0.938 0.014
vt 0.942 0.014
vt 0.937 0.014
vt 0.931 0.024
vt 0.938 0.024
vt 0.931 0.014
vt 0.938 0.024
vt 0.938 0.014
vt 0.931 0.014
vt 0.701 0.12
vt 0.642 0.12
vt 0.701 0.117
vt 0.642 0.12
vt 0.642 0.117
vt 0.701 0.117
vt 0.937 0.122
vt 0.942 0.122
vt 0.937 0.103
vt 0.942 0.122
vt 0.942 0.103
vt 0.937 0.103
vt 0.942 0.122
vt 0.945 0.122
vt 0.937 0.122
vt 0.945 0.122
vt 0.942 0.122
vt 0.937 0.122
vt 0.942 0.093
vt 0.937 0.093
vt 0.953 0.093
vt 0.937 0.093
vt 0.937 0.014
vt 0.942 0.093
vt 0.937 0.014
vt 0.942 0.014
vt 0.942 0.093
vt 0.698 0.085
vt 0.701 0.117
vt 0.639 0.085
vt 0.701 0.117
vt 0.642 0.117
vt 0.639 0.085
vt 0.687 0.057
vt 0.698 0.085
vt 0.632 0.057
vt 0.698 0.085
vt 0.639 0.085
vt 0.632 0.057
vt 0.671 0.034
vt 0.687 0.057
vt 0.621 0.034
vt 0.687 0.057
vt 0.632 0.057
vt 0.621 0.034
vt 0.651 0.019
vt 0.671 0.034
vt 0.606 0.019
vt 0.671 0.034
vt 0.621 0.034
vt 0.606 0.019
vt 0.928 0.025
vt 0.935 0.025
vt 0.931 0.024
vt 0.935 0.025
vt 0.938 0.024
vt 0.931 0.024
vt 0.931 0.103
vt 0.937 0.103
vt 0.938 0.103
vt 0.937 0.103
vt 0.942 0.103
vt 0.938 0.103
vt 0.928 0.102
vt 0.931 0.103
vt 0.935 0.102
vt 0.931 0.103
vt 0.938 0.103
vt 0.935 0.102
vt 0.671 0.471
vt 0.651 0.485
vt 0.621 0.471
vt 0.651 0.485
vt 0.606 0.485
vt 0.621 0.471
vt 0.687 0.448
vt 0.671 0.471
vt 0.632 0.448
vt 0.671 0.471
vt 0.621 0.471
vt 0.632 0.448
vt 0.698 0.419
vt 0.687 0.448
vt 0.639 0.419
vt 0.687 0.448
vt 0.632 0.448
vt 0.639 0.419
vt 0.698 0.419
vt 0.639 0.419
vt 0.701 0.387
vt 0.639 0.419
vt 0.642 0.387
vt 0.701 0.387
vt 0.639 0.419
vt 0.572 0.419
vt 0.642 0.387
vt 0.572 0.419
vt 0.573 0.387
vt 0.642 0.387
vt 0.639 0.419
vt 0.632 0.448
vt 0.572 0.419
vt 0.632 0.448
vt 0.568 0.448
vt 0.572 0.419
vt 0.632 0.448
vt 0.621 0.471
vt 0.568 0.448
vt 0.621 0.471
vt 0.562 0.471
vt 0.568 0.448
vt 0.621 0.471
vt 0.606 0.485
vt 0.562 0.471
vt 0.606 0.485
vt 0.554 0.485
vt 0.562 0.471
vt 0.935 0.102
vt 0.938 0.103
vt 0.944 0.102
vt 0.938 0.103
vt 0.945 0.103
vt 0.944 0.102
vt 0.938 0.103
vt 0.942 0.103
vt 0.945 0.103
vt 0.942 0.103
vt 0.947 0.103
vt 0.945 0.103
vt 0.935 0.025
vt 0.944 0.025
vt 0.938 0.024
vt 0.944 0.025
vt 0.945 0.024
vt 0.938 0.024
vt 0.606 0.019
vt 0.621 0.034
vt 0.554 0.019
vt 0.621 0.034
vt 0.562 0.034
vt 0.554 0.019
vt 0.621 0.034
vt 0.632 0.057
vt 0.562 0.034
vt 0.632 0.057
vt 0.568 0.057
vt 0.562 0.034
vt 0.632 0.057
vt 0.639 0.085
vt 0.568 0.057
vt 0.639 0.085
vt 0.572 0.085
vt 0.568 0.057
vt 0.639 0.085
vt 0.642 0.117
vt 0.572 0.085
vt 0.642 0.117
vt 0.573 0.117
vt 0.572 0.085
vt 0.942 0.093
vt 0.942 0.014
vt 0.947 0.093
vt 0.942 0.014
vt 0.947 0.014
vt 0.947 0.093
vt 0.947 0.093
vt 0.942 0.093
vt 0.953 0.093
vt 0.945 0.122
vt 0.949 0.122
vt 0.942 0.122
vt 0.949 0.122
vt 0.947 0.122
vt 0.942 0.122
vt 0.942 0.122
vt 0.947 0.122
vt 0.942 0.103
vt 0.947 0.122
vt 0.947 0.103
vt 0.942 0.103
vt 0.642 0.12
vt 0.573 0.12
vt 0.642 0.117
vt 0.573 0.12
vt 0.573 0.117
vt 0.642 0.117
vt 0.938 0.024
vt 0.945 0.024
vt 0.938 0.014
vt 0.945 0.024
vt 0.945 0.014
vt 0.938 0.014
vt 0.938 0.014
vt 0.945 0.014
vt 0.942 0.014
vt 0.945 0.014
vt 0.947 0.014
vt 0.942 0.014
vt 0.945 0.014
vt 0.953 0.014
vt 0.947 0.014
vt 0.953 0.014
vt 0.953 0.014
vt 0.947 0.014
vt 0.945 0.024
vt 0.953 0.024
vt 0.945 0.014
vt 0.953 0.024
vt 0.953 0.014
vt 0.945 0.014
vt 0.573 0.12
vt 0.499 0.12
vt 0.573 0.117
vt 0.499 0.12
vt 0.499 0.117
vt 0.573 0.117
vt 0.947 0.122
vt 0.953 0.122
vt 0.947 0.103
vt 0.953 0.122
vt 0.953 0.103
vt 0.947 0.103
vt 0.949 0.122
vt 0.953 0.122
vt 0.947 0.122
vt 0.953 0.122
vt 0.953 0.122
vt 0.947 0.122
vt 0.953 0.093
vt 0.947 0.093
vt 0.953 0.093
vt 0.947 0.093
vt 0.947 0.014
vt 0.953 0.093
vt 0.947 0.014
vt 0.953 0.014
vt 0.953 0.093
vt 0.572 0.085
vt 0.573 0.117
vt 0.499 0.085
vt 0.573 0.117
vt 0.499 0.117
vt 0.499 0.085
vt 0.568 0.057
vt 0.572 0.085
vt 0.499 0.057
vt 0.572 0.085
vt 0.499 0.085
vt 0.499 0.057
vt 0.562 0.034
vt 0.568 0.057
vt 0.499 0.034
vt 0.568 0.057
vt 0.499 0.057
vt 0.499 0.034
vt 0.554 0.019
vt 0.562 0.034
vt 0.499 0.019
vt 0.562 0.034
vt 0.499 0.034
vt 0.499 0.019
vt 0.944 0.025
vt 0.953 0.025
vt 0.945 0.024
vt 0.953 0.025
vt 0.953 0.024
vt 0.945 0.024
vt 0.945 0.103
vt 0.947 0.103
vt 0.953 0.103
vt 0.947 0.103
vt 0.953 0.103
vt 0.953 0.103
vt 0.944 0.102
vt 0.945 0.103
vt 0.953 0.102
vt 0.945 0.103
vt 0.953 0.103
vt 0.953 0.102
vt 0.562 0.471
vt 0.554 0.485
vt 0.499 0.471
vt 0.554 0.485
vt 0.499 0.485
vt 0.499 0.471
vt 0.568 0.448
vt 0.562 0.471
vt 0.499 0.448
vt 0.562 0.471
vt 0.499 0.471
vt 0.499 0.448
vt 0.572 0.419
vt 0.568 0.448
vt 0.499 0.419
vt 0.568 0.448
vt 0.499 0.448
vt 0.499 0.419
vt 0.572 0.419
vt 0.499 0.419
vt 0.573 0.387
vt 0.499 0.419
vt 0.499 0.387
vt 0.573 0.387
vt 0.499 0.419
vt 0.426 0.419
vt 0.499 0.387
vt 0.426 0.419
vt 0.425 0.387
vt 0.499 0.387
vt 0.499 0.419
vt 0.499 0.448
vt 0.426 0.419
vt 0.499 0.448
vt 0.43 0.448
vt 0.426 0.419
vt 0.499 0.448
vt 0.499 0.471
vt 0.43 0.448
vt 0.499 0.471
vt 0.436 0.471
vt 0.43 0.448
vt 0.499 0.471
vt 0.499 0.485
vt 0.436 0.471
vt 0.499 0.485
vt 0.444 0.485
vt 0.436 0.471
vt 0.953 0.102
vt 0.953 0.103
vt 0.962 0.102
vt 0.953 0.103
vt 0.961 0.103
vt 0.962 0.102
vt 0.953 0.103
vt 0.953 0.103
vt 0.961 0.103
vt 0.953 0.103
vt 0.959 0.103
vt 0.961 0.103
vt 0.953 0.025
vt 0.962 0.025
vt 0.953 0.024
vt 0.962 0.025
vt 0.961 0.024
vt 0.953 0.024
vt 0.499 0.019
vt 0.499 0.034
vt 0.444 0.019
vt 0.499 0.034
vt 0.436 0.034
vt 0.444 0.019
vt 0.499 0.034
vt 0.499 0.057
vt 0.436 0.034
vt 0.499 0.057
vt 0.43 0.057
vt 0.436 0.034
vt 0.499 0.057
vt 0.499 0.085
vt 0.43 0.057
vt 0.499 0.085
vt 0.426 0.085
vt 0.43 0.057
vt 0.499 0.085
vt 0.499 0.117
vt 0.426 0.085
vt 0.499 0.117
vt 0.425 0.117
vt 0.426 0.085
vt 0.953 0.093
vt 0.953 0.014
vt 0.959 0.093
vt 0.953 0.014
vt 0.959 0.014
vt 0.959 0.093
vt 0.959 0.093
vt 0.953 0.093
vt 0.953 0.093
vt 0.953 0.122
vt 0.957 0.122
vt 0.953 0.122
vt 0.957 0.122
vt 0.959 0.122
vt 0.953 0.122
vt 0.953 0.122
vt 0.959 0.122
vt 0.953 0.103
vt 0.959 0.122
vt 0.959 0.103
vt 0.953 0.103
vt 0.499 0.12
vt 0.425 0.12
vt 0.499 0.117
vt 0.425 0.12
vt 0.425 0.117
vt 0.499 0.117
vt 0.953 0.024
vt 0.961 0.024
vt 0.953 0.014
vt 0.961 0.024
vt 0.961 0.014
vt 0.953 0.014
vt 0.953 0.014
vt 0.961 0.014
vt 0.953 0.014
vt 0.961 0.014
vt 0.959 0.014
vt 0.953 0.014
vt 0.961 0.014
vt 0.968 0.014
vt 0.959 0.014
vt 0.968 0.014
vt 0.964 0.014
vt 0.959 0.014
vt 0.961 0.024
vt 0.968 0.024
vt 0.961 0.014
vt 0.968 0.024
vt 0.968 0.014
vt 0.961 0.014
vt 0.425 0.12
vt 0.356 0.12
vt 0.425 0.117
vt 0.356 0.12
vt 0.356 0.117
vt 0.425 0.117
vt 0.959 0.122
vt 0.964 0.122
vt 0.959 0.103
vt 0.964 0.122
vt 0.964 0.103
vt 0.959 0.103
vt 0.957 0.122
vt 0.96 0.122
vt 0.959 0.122
vt 0.96 0.122
vt 0.964 0.122
vt 0.959 0.122
vt 0.964 0.093
vt 0.959 0.093
vt 0.953 0.093
vt 0.959 0.093
vt 0.959 0.014
vt 0.964 0.093
vt 0.959 0.014
vt 0.964 0.014
vt 0.964 0.093
vt 0.426 0.085
vt 0.425 0.117
vt 0.359 0.085
vt 0.425 0.117
vt 0.356 0.117
vt 0.359 0.085
vt 0.43 0.057
vt 0.426 0.085
vt 0.366 0.057
vt 0.426 0.085
vt 0.359 0.085
vt 0.366 0.057
vt 0.436 0.034
vt 0.43 0.057
vt 0.377 0.034
vt 0.43 0.057
vt 0.366 0.057
vt 0.377 0.034
vt 0.444 0.019
vt 0.436 0.034
vt 0.392 0.019
vt 0.436 0.034
vt 0.377 0.034
vt 0.392 0.019
vt 0.962 0.025
vt 0.97 0.025
vt 0.961 0.024
vt 0.97 0.025
vt 0.968 0.024
vt 0.961 0.024
vt 0.961 0.103
vt 0.959 0.103
vt 0.968 0.103
vt 0.959 0.103
vt 0.964 0.103
vt 0.968 0.103
vt 0.962 0.102
vt 0.961 0.103
vt 0.97 0.102
vt 0.961 0.103
vt 0.968 0.103
vt 0.97 0.102
vt 0.436 0.471
vt 0.444 0.485
vt 0.377 0.471
vt 0.444 0.485
vt 0.392 0.485
vt 0.377 0.471
vt 0.43 0.448
vt 0.436 0.471
vt 0.366 0.448
vt 0.436 0.471
vt 0.377 0.471
vt 0.366 0.448
vt 0.426 0.419
vt 0.43 0.448
vt 0.359 0.419
vt 0.43 0.448
vt 0.366 0.448
vt 0.359 0.419
vt 0.426 0.419
vt 0.359 0.419
vt 0.425 0.387
vt 0.359 0.419
vt 0.356 0.387
vt 0.425 0.387
vt 0.359 0.419
vt 0.3 0.419
vt 0.356 0.387
vt 0.3 0.419
vt 0.297 0.387
vt 0.356 0.387
vt 0.359 0.419
vt 0.366 0.448
vt 0.3 0.419
vt 0.366 0.448
vt 0.311 0.448
vt 0.3 0.419
vt 0.366 0.448
vt 0.377 0.471
vt 0.311 0.448
vt 0.377 0.471
vt 0.327 0.471
vt 0.311 0.448
vt 0.377 0.471
vt 0.392 0.485
vt 0.327 0.471
vt 0.392 0.485
vt 0.348 0.485
vt 0.327 0.471
vt 0.97 0.102
vt 0.968 0.103
vt 0.978 0.102
vt 0.968 0.103
vt 0.974 0.103
vt 0.978 0.102
vt 0.968 0.103
vt 0.964 0.103
vt 0.974 0.103
vt 0.964 0.103
vt 0.969 0.103
vt 0.974 0.103
vt 0.97 0.025
vt 0.978 0.025
vt 0.968 0.024
vt 0.978 0.025
vt 0.974 0.024
vt 0.968 0.024
vt 0.392 0.019
vt 0.377 0.034
vt 0.348 0.019
vt 0.377 0.034
vt 0.327 0.034
vt 0.348 0.019
vt 0.377 0.034
vt 0.366 0.057
vt 0.327 0.034
vt 0.366 0.057
vt 0.311 0.057
vt 0.327 0.034
vt 0.366 0.057
vt 0.359 0.085
vt 0.311 0.057
vt 0.359 0.085
vt 0.3 0.085
vt 0.311 0.057
vt 0.359 0.085
vt 0.356 0.117
vt 0.3 0.085
vt 0.356 0.117
vt 0.297 0.117
vt 0.3 0.085
vt 0.964 0.093
vt 0.964 0.014
vt 0.969 0.093
vt 0.964 0.014
vt 0.969 0.014
vt 0.969 0.093
vt 0.969 0.093
vt 0.964 0.093
vt 0.953 0.093
vt 0.96 0.122
vt 0.963 0.122
vt 0.964 0.122
vt 0.963 0.122
vt 0.969 0.122
vt 0.964 0.122
vt 0.964 0.122
vt 0.969 0.122
vt 0.964 0.103
vt 0.969 0.122
vt 0.969 0.103
vt 0.964 0.103
vt 0.356 0.12
vt 0.297 0.12
vt 0.356 0.117
vt 0.297 0.12
vt 0.297 0.117
vt 0.356 0.117
vt 0.968 0.024
vt 0.974 0.024
vt 0.968 0.014
vt 0.974 0.024
vt 0.974 0.014
vt 0.968 0.014
vt 0.968 0.014
vt 0.974 0.014
vt 0.964 0.014
vt 0.974 0.014
vt 0.969 0.014
vt 0.964 0.014
vt 0.974 0.014
vt 0.979 0.014
vt 0.969 0.014
vt 0.979 0.014
vt 0.972 0.014
vt 0.969 0.014
vt 0.974 0.024
vt 0.979 0.024
vt 0.974 0.014
vt 0.979 0.024
vt 0.979 0.014
vt 0.974 0.014
vt 0.297 0.12
vt 0.251 0.12
vt 0.297 0.117
vt 0.251 0.12
vt 0.251 0.117
vt 0.297 0.117
vt 0.969 0.122
vt 0.972 0.122
vt 0.969 0.103
vt 0.972 0.122
vt 0.972 0.103
vt 0.969 0.103
vt 0.963 0.122
vt 0.966 0.122
vt 0.969 0.122
vt 0.966 0.122
vt 0.972 0.122
vt 0.969 0.122
vt 0.972 0.093
vt 0.969 0.093
vt 0.953 0.093
vt 0.969 0.093
vt 0.969 0.014
vt 0.972 0.093
vt 0.969 0.014
vt 0.972 0.014
vt 0.972 0.093
vt 0.3 0.085
vt 0.297 0.117
vt 0.256 0.085
vt 0.297 0.117
vt 0.251 0.117
vt 0.256 0.085
vt 0.311 0.057
vt 0.3 0.085
vt 0.269 0.057
vt 0.3 0.085
vt 0.256 0.085
vt 0.269 0.057
vt 0.327 0.034
vt 0.311 0.057
vt 0.288 0.034
vt 0.311 0.057
vt 0.269 0.057
vt 0.288 0.034
vt 0.348 0.019
vt 0.327 0.034
vt 0.313 0.019
vt 0.327 0.034
vt 0.288 0.034
vt 0.313 0.019
vt 0.978 0.025
vt 0.983 0.025
vt 0.974 0.024
vt 0.983 0.025
vt 0.979 0.024
vt 0.974 0.024
vt 0.974 0.103
vt 0.969 0.103
vt 0.979 0.103
vt 0.969 0.103
vt 0.972 0.103
vt 0.979 0.103
vt 0.978 0.102
vt 0.974 0.103
vt 0.983 0.102
vt 0.974 0.103
vt 0.979 0.103
vt 0.983 0.102
vt 0.327 0.471
vt 0.348 0.485
vt 0.288 0.471
vt 0.348 0.485
vt 0.313 0.485
vt 0.288 0.471
vt 0.311 0.448
vt 0.327 0.471
vt 0.269 0.448
vt 0.327 0.471
vt 0.288 0.471
vt 0.269 0.448
vt 0.3 0.419
vt 0.311 0.448
vt 0.256 0.419
vt 0.311 0.448
vt 0.269 0.448
vt 0.256 0.419
vt 0.3 0.419
vt 0.256 0.419
vt 0.297 0.387
vt 0.256 0.419
vt 0.251 0.387
vt 0.297 0.387
vt 0.256 0.419
vt 0.228 0.419
vt 0.251 0.387
vt 0.228 0.419
vt 0.223 0.387
vt 0.251 0.387
vt 0.256 0.419
vt 0.269 0.448
vt 0.228 0.419
vt 0.269 0.448
vt 0.242 0.448
vt 0.228 0.419
vt 0.269 0.448
vt 0.288 0.471
vt 0.242 0.448
vt 0.288 0.471
vt 0.264 0.471
vt 0.242 0.448
vt 0.288 0.471
vt 0.313 0.485
vt 0.264 0.471
vt 0.313 0.485
vt 0.292 0.485
vt 0.264 0.471
vt 0.983 0.102
vt 0.979 0.103
vt 0.987 0.102
vt 0.979 0.103
vt 0.982 0.103
vt 0.987 0.102
vt 0.979 0.103
vt 0.972 0.103
vt 0.982 0.103
vt 0.972 0.103
vt 0.974 0.103
vt 0.982 0.103
vt 0.983 0.025
vt 0.987 0.025
vt 0.979 0.024
vt 0.987 0.025
vt 0.982 0.024
vt 0.979 0.024
vt 0.313 0.019
vt 0.288 0.034
vt 0.292 0.019
vt 0.288 0.034
vt 0.264 0.034
vt 0.292 0.019
vt 0.288 0.034
vt 0.269 0.057
vt 0.264 0.034
vt 0.269 0.057
vt 0.242 0.057
vt 0.264 0.034
vt 0.269 0.057
vt 0.256 0.085
vt 0.242 0.057
vt 0.256 0.085
vt 0.228 0.085
vt 0.242 0.057
vt 0.256 0.085
vt 0.251 0.117
vt 0.228 0.085
vt 0.251 0.117
vt 0.223 0.117
vt 0.228 0.085
vt 0.972 0.093
vt 0.972 0.014
vt 0.974 0.093
vt 0.972 0.014
vt 0.974 0.014
vt 0.974 0.093
vt 0.974 0.093
vt 0.972 0.093
vt 0.953 0.093
vt 0.966 0.122
vt 0.967 0.122
vt 0.972 0.122
vt 0.967 0.122
vt 0.974 0.122
vt 0.972 0.122
vt 0.972 0.122
vt 0.974 0.122
vt 0.972 0.103
vt 0.974 0.122
vt 0.974 0.103
vt 0.972 0.103
vt 0.251 0.12
vt 0.223 0.12
vt 0.251 0.117
vt 0.223 0.12
vt 0.223 0.117
vt 0.251 0.117
vt 0.979 0.024
vt 0.982 0.024
vt 0.979 0.014
vt 0.982 0.024
vt 0.982 0.014
vt 0.979 0.014
vt 0.979 0.014
vt 0.982 0.014
vt 0.972 0.014
vt 0.982 0.014
vt 0.974 0.014
vt 0.972 0.014
vt 0.982 0.014
vt 0.983 0.014
vt 0.974 0.014
vt 0.983 0.014
vt 0.975 0.014
vt 0.974 0.014
vt 0.982 0.024
vt 0.983 0.024
vt 0.982 0.014
vt 0.983 0.024
vt 0.983 0.014
vt 0.982 0.014
vt 0.223 0.12
vt 0.213 0.12
vt 0.223 0.117
vt 0.213 0.12
vt 0.213 0.117
vt 0.223 0.117
vt 0.974 0.122
vt 0.975 0.122
vt 0.974 0.103
vt 0.975 0.122
vt 0.975 0.103
vt 0.974 0.103
vt 0.967 0.122
vt 0.968 0.122
vt 0.974 0.122
vt 0.968 0.122
vt 0.975 0.122
vt 0.974 0.122
vt 0.975 0.093
vt 0.974 0.093
vt 0.953 0.093
vt 0.974 0.093
vt 0.974 0.014
vt 0.975 0.093
vt 0.974 0.014
vt 0.975 0.014
vt 0.975 0.093
vt 0.228 0.085
vt 0.223 0.117
vt 0.218 0.085
vt 0.223 0.117
vt 0.213 0.117
vt 0.218 0.085
vt 0.242 0.057
vt 0.228 0.085
vt 0.233 0.057
vt 0.228 0.085
vt 0.218 0.085
vt 0.233 0.057
vt 0.264 0.034
vt 0.242 0.057
vt 0.256 0.034
vt 0.242 0.057
vt 0.233 0.057
vt 0.256 0.034
vt 0.292 0.019
vt 0.264 0.034
vt 0.285 0.019
vt 0.264 0.034
vt 0.256 0.034
vt 0.285 0.019
vt 0.987 0.025
vt 0.988 0.025
vt 0.982 0.024
vt 0.988 0.025
vt 0.983 0.024
vt 0.982 0.024
vt 0.982 0.103
vt 0.974 0.103
vt 0.983 0.103
vt 0.974 0.103
vt 0.975 0.103
vt 0.983 0.103
vt 0.987 0.102
vt 0.982 0.103
vt 0.988 0.102
vt 0.982 0.103
vt 0.983 0.103
vt 0.988 0.102
vt 0.285 0.485
vt 0.256 0.471
vt 0.292 0.485
vt 0.256 0.471
vt 0.264 0.471
vt 0.292 0.485
vt 0.256 0.471
vt 0.233 0.448
vt 0.264 0.471
vt 0.233 0.448
vt 0.242 0.448
vt 0.264 0.471
vt 0.228 0.419
vt 0.242 0.448
vt 0.218 0.419
vt 0.242 0.448
vt 0.233 0.448
vt 0.218 0.419
vt 0.228 0.419
vt 0.218 0.419
vt 0.223 0.387
vt 0.218 0.419
vt 0.213 0.387
vt 0.223 0.387
vt 0.953 0.103
vt 0.957 0.103
vt 0.953 0.122
vt 0.957 0.103
vt 0.957 0.122
vt 0.953 0.122
vt 0.967 0.103
vt 0.968 0.103
vt 0.967 0.122
vt 0.968 0.103
vt 0.968 0.122
vt 0.967 0.122
vt 0.945 0.103
vt 0.949 0.103
vt 0.945 0.122
vt 0.949 0.103
vt 0.949 0.122
vt 0.945 0.122
vt 0.963 0.103
vt 0.966 0.103
vt 0.963 0.122
vt 0.966 0.103
vt 0.966 0.122
vt 0.963 0.122
vt 0.967 0.122
vt 0.968 0.122
vt 0.967 0.103
vt 0.968 0.122
vt 0.968 0.103
vt 0.967 0.103
vt 0.94 0.103
vt 0.942 0.103
vt 0.94 0.122
vt 0.942 0.103
vt 0.942 0.122
vt 0.94 0.122
vt 0.957 0.103
vt 0.96 0.103
vt 0.957 0.122
vt 0.96 0.103
vt 0.96 0.122
vt 0.957 0.122
vt 0.938 0.103
vt 0.938 0.103
vt 0.938 0.122
vt 0.938 0.103
vt 0.938 0.122
vt 0.938 0.122
vt 0.949 0.103
vt 0.953 0.103
vt 0.949 0.122
vt 0.953 0.103
vt 0.953 0.122
vt 0.949 0.122
vt 0.94 0.103
vt 0.938 0.103
vt 0.94 0.122
vt 0.938 0.103
vt 0.938 0.122
vt 0.94 0.122
vt 0.942 0.103
vt 0.945 0.103
vt 0.942 0.122
vt 0.945 0.103
vt 0.945 0.122
vt 0.942 0.122
vt 0.945 0.103
vt 0.942 0.103
vt 0.945 0.122
vt 0.942 0.103
vt 0.942 0.122
vt 0.945 0.122
vt 0.938 0.103
vt 0.94 0.103
vt 0.938 0.122
vt 0.94 0.103
vt 0.94 0.122
vt 0.938 0.122
vt 0.953 0.103
vt 0.949 0.103
vt 0.953 0.122
vt 0.949 0.103
vt 0.949 0.122
vt 0.953 0.122
vt 0.938 0.103
vt 0.938 0.103
vt 0.938 0.122
vt 0.938 0.103
vt 0.938 0.122
vt 0.938 0.122
vt 0.96 0.103
vt 0.957 0.103
vt 0.96 0.122
vt 0.957 0.103
vt 0.957 0.122
vt 0.96 0.122
vt 0.942 0.103
vt 0.94 0.103
vt 0.942 0.122
vt 0.94 0.103
vt 0.94 0.122
vt 0.942 0.122
vt 0.966 0.103
vt 0.963 0.103
vt 0.966 0.122
vt 0.963 0.103
vt 0.963 0.122
vt 0.966 0.122
vt 0.949 0.103
vt 0.945 0.103
vt 0.949 0.122
vt 0.945 0.103
vt 0.945 0.122
vt 0.949 0.122
vt 0.957 0.103
vt 0.953 0.103
vt 0.957 0.122
vt 0.953 0.103
vt 0.953 0.122
vt 0.957 0.122
vt 0.963 0.103
vt 0.96 0.103
vt 0.963 0.122
vt 0.96 0.103
vt 0.96 0.122
vt 0.963 0.122
vt 0.967 0.103
vt 0.966 0.103
vt 0.967 0.122
vt 0.966 0.103
vt 0.966 0.122
vt 0.967 0.122
vt 0.953 0.103
vt 0.968 0.103
vt 0.967 0.103
vt 0.953 0.103
vt 0.957 0.103
vt 0.953 0.103
vt 0.953 0.103
vt 0.94 0.103
vt 0.938 0.103
vt 0.953 0.103
vt 0.96 0.103
vt 0.963 0.103
vt 0.953 0.103
vt 0.942 0.103
vt 0.945 0.103
vt 0.967 0.103
vt 0.968 0.103
vt 0.953 0.103
vt 0.953 0.103
vt 0.96 0.103
vt 0.957 0.103
vt 0.953 0.103
vt 0.942 0.103
vt 0.94 0.103
vt 0.953 0.103
vt 0.963 0.103
vt 0.966 0.103
vt 0.953 0.103
vt 0.94 0.103
vt 0.942 0.103
vt 0.953 0.103
vt 0.945 0.103
vt 0.949 0.103
vt 0.953 0.103
vt 0.963 0.103
vt 0.96 0.103
vt 0.953 0.103
vt 0.945 0.103
vt 0.942 0.103
vt 0.953 0.103
vt 0.966 0.103
vt 0.967 0.103
vt 0.953 0.103
vt 0.949 0.103
vt 0.953 0.103
vt 0.953 0.103
vt 0.938 0.103
vt 0.94 0.103
vt 0.953 0.103
vt 0.966 0.103
vt 0.963 0.103
vt 0.953 0.103
vt 0.949 0.103
vt 0.945 0.103
vt 0.953 0.103
vt 0.938 0.103
vt 0.938 0.103
vt 0.953 0.103
vt 0.953 0.103
vt 0.957 0.103
vt 0.953 0.103
vt 0.967 0.103
vt 0.966 0.103
vt 0.953 0.103
vt 0.953 0.103
vt 0.949 0.103
vt 0.953 0.103
vt 0.938 0.103
vt 0.938 0.103
vt 0.953 0.103
vt 0.957 0.103
vt 0.96 0.103
vt 0.223 0.387
vt 0.213 0.387
vt 0.223 0.384
vt 0.213 0.387
vt 0.213 0.384
vt 0.223 0.384
vt 0.251 0.387
vt 0.223 0.387
vt 0.251 0.384
vt 0.223 0.387
vt 0.223 0.384
vt 0.251 0.384
vt 0.297 0.387
vt 0.251 0.387
vt 0.297 0.384
vt 0.251 0.387
vt 0.251 0.384
vt 0.297 0.384
vt 0.356 0.387
vt 0.297 0.387
vt 0.356 0.384
vt 0.297 0.387
vt 0.297 0.384
vt 0.356 0.384
vt 0.425 0.387
vt 0.356 0.387
vt 0.425 0.384
vt 0.356 0.387
vt 0.356 0.384
vt 0.425 0.384
vt 0.499 0.387
vt 0.425 0.387
vt 0.499 0.384
vt 0.425 0.387
vt 0.425 0.384
vt 0.499 0.384
vt 0.573 0.387
vt 0.499 0.387
vt 0.573 0.384
vt 0.499 0.387
vt 0.499 0.384
vt 0.573 0.384
vt 0.642 0.387
vt 0.573 0.387
vt 0.642 0.384
vt 0.573 0.387
vt 0.573 0.384
vt 0.642 0.384
vt 0.701 0.387
vt 0.642 0.387
vt 0.701 0.384
vt 0.642 0.387
vt 0.642 0.384
vt 0.701 0.384
vt 0.747 0.387
vt 0.701 0.387
vt 0.747 0.384
vt 0.701 0.387
vt 0.701 0.384
vt 0.747 0.384
vt 0.775 0.387
vt 0.747 0.387
vt 0.775 0.384
vt 0.747 0.387
vt 0.747 0.384
vt 0.775 0.384
vt 0.785 0.387
vt 0.775 0.387
vt 0.785 0.384
vt 0.775 0.387
vt 0.775 0.384
vt 0.785 0.384
vt 0.223 0.883
vt 0.213 0.883
vt 0.223 0.881
vt 0.213 0.883
vt 0.213 0.881
vt 0.223 0.881
vt 0.252 0.883
vt 0.223 0.883
vt 0.252 0.881
vt 0.223 0.883
vt 0.223 0.881
vt 0.252 0.881
vt 0.297 0.883
vt 0.252 0.883
vt 0.297 0.881
vt 0.252 0.883
vt 0.252 0.881
vt 0.297 0.881
vt 0.356 0.883
vt 0.297 0.883
vt 0.356 0.881
vt 0.297 0.883
vt 0.297 0.881
vt 0.356 0.881
vt 0.425 0.883
vt 0.356 0.883
vt 0.425 0.881
vt 0.356 0.883
vt 0.356 0.881
vt 0.425 0.881
vt 0.499 0.883
vt 0.425 0.883
vt 0.499 0.881
vt 0.425 0.883
vt 0.425 0.881
vt 0.499 0.881
vt 0.573 0.883
vt 0.499 0.883
vt 0.573 0.881
vt 0.499 0.883
vt 0.499 0.881
vt 0.573 0.881
vt 0.642 0.883
vt 0.573 0.883
vt 0.642 0.881
vt 0.573 0.883
vt 0.573 0.881
vt 0.642 0.881
vt 0.702 0.883
vt 0.642 0.883
vt 0.702 0.881
vt 0.642 0.883
vt 0.642 0.881
vt 0.702 0.881
vt 0.747 0.883
vt 0.702 0.883
vt 0.747 0.881
vt 0.702 0.883
vt 0.702 0.881
vt 0.747 0.881
vt 0.776 0.883
vt 0.747 0.883
vt 0.776 0.881
vt 0.747 0.883
vt 0.747 0.881
vt 0.776 0.881
vt 0.785 0.883
vt 0.776 0.883
vt 0.785 0.881
vt 0.776 0.883
vt 0.776 0.881
vt 0.785 0.881
vt 0.223 0.384
vt 0.213 0.384
vt 0.223 0.12
vt 0.213 0.384
vt 0.213 0.12
vt 0.223 0.12
vt 0.251 0.384
vt 0.223 0.384
vt 0.251 0.12
vt 0.223 0.384
vt 0.223 0.12
vt 0.251 0.12
vt 0.297 0.384
vt 0.251 0.384
vt 0.297 0.12
vt 0.251 0.384
vt 0.251 0.12
vt 0.297 0.12
vt 0.356 0.384
vt 0.297 0.384
vt 0.356 0.12
vt 0.297 0.384
vt 0.297 0.12
vt 0.356 0.12
vt 0.425 0.384
vt 0.356 0.384
vt 0.425 0.12
vt 0.356 0.384
vt 0.356 0.12
vt 0.425 0.12
vt 0.499 0.384
vt 0.425 0.384
vt 0.499 0.12
vt 0.425 0.384
vt 0.425 0.12
vt 0.499 0.12
vt 0.573 0.384
vt 0.499 0.384
vt 0.573 0.12
vt 0.499 0.384
vt 0.499 0.12
vt 0.573 0.12
vt 0.642 0.384
vt 0.573 0.384
vt 0.642 0.12
vt 0.573 0.384
vt 0.573 0.12
vt 0.642 0.12
vt 0.701 0.384
vt 0.642 0.384
vt 0.701 0.12
vt 0.642 0.384
vt 0.642 0.12
vt 0.701 0.12
vt 0.747 0.384
vt 0.701 0.384
vt 0.747 0.12
vt 0.701 0.384
vt 0.701 0.12
vt 0.747 0.12
vt 0.775 0.384
vt 0.747 0.384
vt 0.775 0.12
vt 0.747 0.384
vt 0.747 0.12
vt 0.775 0.12
vt 0.785 0.384
vt 0.775 0.384
vt 0.785 0.12
vt 0.775 0.384
vt 0.775 0.12
vt 0.785 0.12
vt 0.223 0.881
vt 0.213 0.881
vt 0.223 0.616
vt 0.213 0.881
vt 0.213 0.616
vt 0.223 0.616
vt 0.252 0.881
vt 0.223 0.881
vt 0.252 0.616
vt 0.223 0.881
vt 0.223 0.616
vt 0.252 0.616
vt 0.297 0.881
vt 0.252 0.881
vt 0.297 0.616
vt 0.252 0.881
vt 0.252 0.616
vt 0.297 0.616
vt 0.356 0.881
vt 0.297 0.881
vt 0.356 0.616
vt 0.297 0.881
vt 0.297 0.616
vt 0.356 0.616
vt 0.425 0.881
vt 0.356 0.881
vt 0.425 0.616
vt 0.356 0.881
vt 0.356 0.616
vt 0.425 0.616
vt 0.499 0.881
vt 0.425 0.881
vt 0.499 0.616
vt 0.425 0.881
vt 0.425 0.616
vt 0.499 0.616
vt 0.573 0.881
vt 0.499 0.881
vt 0.573 0.616
vt 0.499 0.881
vt 0.499 0.616
vt 0.573 0.616
vt 0.642 0.881
vt 0.573 0.881
vt 0.642 0.616
vt 0.573 0.881
vt 0.573 0.616
vt 0.642 0.616
vt 0.702 0.881
vt 0.642 0.881
vt 0.702 0.616
vt 0.642 0.881
vt 0.642 0.616
vt 0.702 0.616
vt 0.747 0.881
vt 0.702 0.881
vt 0.747 0.616
vt 0.702 0.881
vt 0.702 0.616
vt 0.747 0.616
vt 0.776 0.881
vt 0.747 0.881
vt 0.776 0.616
vt 0.747 0.881
vt 0.747 0.616
vt 0.776 0.616
vt 0.785 0.881
vt 0.776 0.881
vt 0.785 0.616
vt 0.776 0.881
vt 0.776 0.616
vt 0.785 0.616
usemtl MB_24_official_3053
s off
f 694/1 695/2 360/3
f 695/4 660/5 360/6
f 696/7 697/8 396/9
f 697/10 674/11 396/12
f 441/13 10/14 429/15
f 10/16 24/17 429/18
f 441/19 440/20 10/21
f 440/22 11/23 10/24
f 440/25 9/26 11/27
f 9/28 12/29 11/30
f 9/31 439/32 12/33
f 439/34 13/35 12/36
f 439/37 438/38 13/39
f 438/40 14/41 13/42
f 438/43 430/44 14/45
f 430/46 522/47 14/48
f 437/49 15/50 427/51
f 15/52 520/53 427/54
f 437/55 436/56 15/57
f 436/58 16/59 15/60
f 436/61 435/62 16/63
f 435/64 17/65 16/66
f 435/67 434/68 17/69
f 434/70 18/71 17/72
f 434/73 428/74 18/75
f 428/76 25/77 18/78
f 433/79 425/80 528/81
f 425/82 516/83 528/84
f 673/85 683/86 20/87
f 682/88 526/89 431/90
f 526/91 524/92 431/93
f 681/94 22/95 680/96
f 22/97 23/98 680/99
f 506/100 483/101 428/102
f 483/103 25/104 428/105
f 679/106 26/107 426/108
f 26/109 518/110 426/111
f 678/112 27/113 677/114
f 27/115 28/116 677/117
f 27/118 519/119 28/120
f 519/121 517/122 28/123
f 26/124 521/125 518/126
f 521/127 30/128 518/129
f 483/130 495/131 25/132
f 495/133 32/134 25/135
f 22/136 525/137 23/138
f 525/139 523/140 23/141
f 526/142 527/143 524/144
f 527/145 35/146 524/147
f 669/148 673/149 20/150
f 528/151 516/152 529/153
f 516/154 29/155 529/156
f 18/157 25/158 38/159
f 25/160 32/161 38/162
f 17/163 18/164 39/165
f 18/166 38/167 39/168
f 16/169 17/170 40/171
f 17/172 39/173 40/174
f 15/175 16/176 41/177
f 16/178 40/179 41/180
f 15/181 41/182 520/183
f 41/184 31/185 520/186
f 14/187 522/188 42/189
f 522/190 34/191 42/192
f 13/193 14/194 43/195
f 14/196 42/197 43/198
f 12/199 13/200 44/201
f 13/202 43/203 44/204
f 11/205 12/206 45/207
f 12/208 44/209 45/210
f 10/211 11/212 46/213
f 11/214 45/215 46/216
f 10/217 46/218 24/219
f 46/220 33/221 24/222
f 46/223 47/224 33/225
f 47/226 60/227 33/228
f 46/229 45/230 47/231
f 45/232 48/233 47/234
f 45/235 44/236 48/237
f 44/238 49/239 48/240
f 44/241 43/242 49/243
f 43/244 50/245 49/246
f 43/247 42/248 50/249
f 42/250 51/251 50/252
f 42/253 34/254 51/255
f 34/256 530/257 51/258
f 41/259 52/260 31/261
f 52/262 531/263 31/264
f 41/265 40/266 52/267
f 40/268 53/269 52/270
f 40/271 39/272 53/273
f 39/274 54/275 53/276
f 39/277 38/278 54/279
f 38/280 55/281 54/282
f 38/283 32/284 55/285
f 32/286 61/287 55/288
f 529/289 29/290 533/291
f 29/292 532/293 533/294
f 659/295 669/296 20/297
f 527/298 534/299 35/300
f 534/301 535/302 35/303
f 525/304 58/305 523/306
f 58/307 59/308 523/309
f 495/310 484/311 32/312
f 484/313 61/314 32/315
f 521/316 62/317 30/318
f 62/319 536/320 30/321
f 519/322 63/323 517/324
f 63/325 64/326 517/327
f 63/328 538/329 64/330
f 538/331 537/332 64/333
f 62/334 539/335 536/336
f 539/337 66/338 536/339
f 484/340 496/341 61/342
f 496/343 68/344 61/345
f 58/346 541/347 59/348
f 541/349 540/350 59/351
f 534/352 542/353 535/354
f 542/355 71/356 535/357
f 655/358 659/359 20/360
f 533/361 532/362 543/363
f 532/364 65/365 543/366
f 55/367 61/368 74/369
f 61/370 68/371 74/372
f 54/373 55/374 75/375
f 55/376 74/377 75/378
f 53/379 54/380 76/381
f 54/382 75/383 76/384
f 52/385 53/386 77/387
f 53/388 76/389 77/390
f 52/391 77/392 531/393
f 77/394 67/395 531/396
f 51/397 530/398 78/399
f 530/400 70/401 78/402
f 50/403 51/404 79/405
f 51/406 78/407 79/408
f 49/409 50/410 80/411
f 50/412 79/413 80/414
f 48/415 49/416 81/417
f 49/418 80/419 81/420
f 47/421 48/422 82/423
f 48/424 81/425 82/426
f 47/427 82/428 60/429
f 82/430 69/431 60/432
f 82/433 83/434 69/435
f 83/436 96/437 69/438
f 82/439 81/440 83/441
f 81/442 84/443 83/444
f 81/445 80/446 84/447
f 80/448 85/449 84/450
f 80/451 79/452 85/453
f 79/454 86/455 85/456
f 79/457 78/458 86/459
f 78/460 87/461 86/462
f 78/463 70/464 87/465
f 70/466 544/467 87/468
f 77/469 88/470 67/471
f 88/472 545/473 67/474
f 77/475 76/476 88/477
f 76/478 89/479 88/480
f 76/481 75/482 89/483
f 75/484 90/485 89/486
f 75/487 74/488 90/489
f 74/490 91/491 90/492
f 74/493 68/494 91/495
f 68/496 97/497 91/498
f 543/499 65/500 547/501
f 65/502 546/503 547/504
f 645/505 655/506 20/507
f 542/508 548/509 71/510
f 548/511 549/512 71/513
f 541/514 94/515 540/516
f 94/517 95/518 540/519
f 496/520 485/521 68/522
f 485/523 97/524 68/525
f 539/526 98/527 66/528
f 98/529 550/530 66/531
f 538/532 99/533 537/534
f 99/535 100/536 537/537
f 99/538 552/539 100/540
f 552/541 551/542 100/543
f 98/544 553/545 550/546
f 553/547 102/548 550/549
f 485/550 497/551 97/552
f 497/553 104/554 97/555
f 94/556 555/557 95/558
f 555/559 554/560 95/561
f 548/562 556/563 549/564
f 556/565 107/566 549/567
f 641/568 645/569 20/570
f 547/571 546/572 557/573
f 546/574 101/575 557/576
f 91/577 97/578 110/579
f 97/580 104/581 110/582
f 90/583 91/584 111/585
f 91/586 110/587 111/588
f 89/589 90/590 112/591
f 90/592 111/593 112/594
f 88/595 89/596 113/597
f 89/598 112/599 113/600
f 88/601 113/602 545/603
f 113/604 103/605 545/606
f 87/607 544/608 114/609
f 544/610 106/611 114/612
f 86/613 87/614 115/615
f 87/616 114/617 115/618
f 85/619 86/620 116/621
f 86/622 115/623 116/624
f 84/625 85/626 117/627
f 85/628 116/629 117/630
f 83/631 84/632 118/633
f 84/634 117/635 118/636
f 83/637 118/638 96/639
f 118/640 105/641 96/642
f 118/643 119/644 105/645
f 119/646 132/647 105/648
f 118/649 117/650 119/651
f 117/652 120/653 119/654
f 117/655 116/656 120/657
f 116/658 121/659 120/660
f 116/661 115/662 121/663
f 115/664 122/665 121/666
f 115/667 114/668 122/669
f 114/670 123/671 122/672
f 114/673 106/674 123/675
f 106/676 558/677 123/678
f 113/679 124/680 103/681
f 124/682 559/683 103/684
f 113/685 112/686 124/687
f 112/688 125/689 124/690
f 112/691 111/692 125/693
f 111/694 126/695 125/696
f 111/697 110/698 126/699
f 110/700 127/701 126/702
f 110/703 104/704 127/705
f 104/706 133/707 127/708
f 557/709 101/710 561/711
f 101/712 560/713 561/714
f 631/715 641/716 20/717
f 556/718 562/719 107/720
f 562/721 563/722 107/723
f 555/724 130/725 554/726
f 130/727 131/728 554/729
f 497/730 486/731 104/732
f 486/733 133/734 104/735
f 553/736 134/737 102/738
f 134/739 564/740 102/741
f 552/742 135/743 551/744
f 135/745 136/746 551/747
f 135/748 566/749 136/750
f 566/751 565/752 136/753
f 134/754 567/755 564/756
f 567/757 138/758 564/759
f 486/760 498/761 133/762
f 498/763 140/764 133/765
f 130/766 569/767 131/768
f 569/769 568/770 131/771
f 562/772 570/773 563/774
f 570/775 143/776 563/777
f 627/778 631/779 20/780
f 561/781 560/782 571/783
f 560/784 137/785 571/786
f 127/787 133/788 146/789
f 133/790 140/791 146/792
f 126/793 127/794 147/795
f 127/796 146/797 147/798
f 125/799 126/800 148/801
f 126/802 147/803 148/804
f 124/805 125/806 149/807
f 125/808 148/809 149/810
f 124/811 149/812 559/813
f 149/814 139/815 559/816
f 123/817 558/818 150/819
f 558/820 142/821 150/822
f 122/823 123/824 151/825
f 123/826 150/827 151/828
f 121/829 122/830 152/831
f 122/832 151/833 152/834
f 120/835 121/836 153/837
f 121/838 152/839 153/840
f 119/841 120/842 154/843
f 120/844 153/845 154/846
f 119/847 154/848 132/849
f 154/850 141/851 132/852
f 154/853 155/854 141/855
f 155/856 168/857 141/858
f 154/859 153/860 155/861
f 153/862 156/863 155/864
f 153/865 152/866 156/867
f 152/868 157/869 156/870
f 152/871 151/872 157/873
f 151/874 158/875 157/876
f 151/877 150/878 158/879
f 150/880 159/881 158/882
f 150/883 142/884 159/885
f 142/886 572/887 159/888
f 149/889 160/890 139/891
f 160/892 573/893 139/894
f 149/895 148/896 160/897
f 148/898 161/899 160/900
f 148/901 147/902 161/903
f 147/904 162/905 161/906
f 147/907 146/908 162/909
f 146/910 163/911 162/912
f 146/913 140/914 163/915
f 140/916 169/917 163/918
f 571/919 137/920 575/921
f 137/922 574/923 575/924
f 617/925 627/926 20/927
f 570/928 576/929 143/930
f 576/931 577/932 143/933
f 569/934 166/935 568/936
f 166/937 167/938 568/939
f 498/940 487/941 140/942
f 487/943 169/944 140/945
f 567/946 170/947 138/948
f 170/949 578/950 138/951
f 566/952 171/953 565/954
f 171/955 172/956 565/957
f 171/958 580/959 172/960
f 580/961 579/962 172/963
f 170/964 581/965 578/966
f 581/967 174/968 578/969
f 487/970 499/971 169/972
f 499/973 176/974 169/975
f 166/976 583/977 167/978
f 583/979 582/980 167/981
f 576/982 584/983 577/984
f 584/985 179/986 577/987
f 613/988 617/989 20/990
f 575/991 574/992 585/993
f 574/994 173/995 585/996
f 163/997 169/998 182/999
f 169/1000 176/1001 182/1002
f 162/1003 163/1004 183/1005
f 163/1006 182/1007 183/1008
f 161/1009 162/1010 184/1011
f 162/1012 183/1013 184/1014
f 160/1015 161/1016 185/1017
f 161/1018 184/1019 185/1020
f 160/1021 185/1022 573/1023
f 185/1024 175/1025 573/1026
f 159/1027 572/1028 186/1029
f 572/1030 178/1031 186/1032
f 158/1033 159/1034 187/1035
f 159/1036 186/1037 187/1038
f 157/1039 158/1040 188/1041
f 158/1042 187/1043 188/1044
f 156/1045 157/1046 189/1047
f 157/1048 188/1049 189/1050
f 155/1051 156/1052 190/1053
f 156/1054 189/1055 190/1056
f 155/1057 190/1058 168/1059
f 190/1060 177/1061 168/1062
f 190/1063 191/1064 177/1065
f 191/1066 204/1067 177/1068
f 190/1069 189/1070 191/1071
f 189/1072 192/1073 191/1074
f 189/1075 188/1076 192/1077
f 188/1078 193/1079 192/1080
f 188/1081 187/1082 193/1083
f 187/1084 194/1085 193/1086
f 187/1087 186/1088 194/1089
f 186/1090 195/1091 194/1092
f 186/1093 178/1094 195/1095
f 178/1096 586/1097 195/1098
f 185/1099 196/1100 175/1101
f 196/1102 587/1103 175/1104
f 185/1105 184/1106 196/1107
f 184/1108 197/1109 196/1110
f 184/1111 183/1112 197/1113
f 183/1114 198/1115 197/1116
f 183/1117 182/1118 198/1119
f 182/1120 199/1121 198/1122
f 182/1123 176/1124 199/1125
f 176/1126 205/1127 199/1128
f 585/1129 173/1130 589/1131
f 173/1132 588/1133 589/1134
f 236/1135 613/1136 20/1137
f 584/1138 590/1139 179/1140
f 590/1141 591/1142 179/1143
f 583/1144 202/1145 582/1146
f 202/1147 203/1148 582/1149
f 499/1150 488/1151 176/1152
f 488/1153 205/1154 176/1155
f 581/1156 206/1157 174/1158
f 206/1159 592/1160 174/1161
f 580/1162 207/1163 579/1164
f 207/1165 208/1166 579/1167
f 207/1168 594/1169 208/1170
f 594/1171 593/1172 208/1173
f 206/1174 595/1175 592/1176
f 595/1177 210/1178 592/1179
f 488/1180 500/1181 205/1182
f 500/1183 212/1184 205/1185
f 202/1186 597/1187 203/1188
f 597/1189 596/1190 203/1191
f 590/1192 598/1193 591/1194
f 598/1195 215/1196 591/1197
f 217/1198 236/1199 20/1200
f 589/1201 588/1202 599/1203
f 588/1204 209/1205 599/1206
f 199/1207 205/1208 218/1209
f 205/1210 212/1211 218/1212
f 198/1213 199/1214 219/1215
f 199/1216 218/1217 219/1218
f 197/1219 198/1220 220/1221
f 198/1222 219/1223 220/1224
f 196/1225 197/1226 221/1227
f 197/1228 220/1229 221/1230
f 196/1231 221/1232 587/1233
f 221/1234 211/1235 587/1236
f 195/1237 586/1238 222/1239
f 586/1240 214/1241 222/1242
f 194/1243 195/1244 223/1245
f 195/1246 222/1247 223/1248
f 193/1249 194/1250 224/1251
f 194/1252 223/1253 224/1254
f 192/1255 193/1256 225/1257
f 193/1258 224/1259 225/1260
f 191/1261 192/1262 226/1263
f 192/1264 225/1265 226/1266
f 191/1267 226/1268 204/1269
f 226/1270 213/1271 204/1272
f 226/1273 227/1274 213/1275
f 227/1276 240/1277 213/1278
f 226/1279 225/1280 227/1281
f 225/1282 228/1283 227/1284
f 225/1285 224/1286 228/1287
f 224/1288 229/1289 228/1290
f 224/1291 223/1292 229/1293
f 223/1294 230/1295 229/1296
f 223/1297 222/1298 230/1299
f 222/1300 231/1301 230/1302
f 222/1303 214/1304 231/1305
f 214/1306 600/1307 231/1308
f 221/1309 232/1310 211/1311
f 232/1312 601/1313 211/1314
f 221/1315 220/1316 232/1317
f 220/1318 233/1319 232/1320
f 220/1321 219/1322 233/1323
f 219/1324 234/1325 233/1326
f 219/1327 218/1328 234/1329
f 218/1330 235/1331 234/1332
f 218/1333 212/1334 235/1335
f 212/1336 241/1337 235/1338
f 599/1339 209/1340 603/1341
f 209/1342 602/1343 603/1344
f 200/1345 217/1346 20/1347
f 598/1348 604/1349 215/1350
f 604/1351 605/1352 215/1353
f 597/1354 238/1355 596/1356
f 238/1357 239/1358 596/1359
f 500/1360 489/1361 212/1362
f 489/1363 241/1364 212/1365
f 595/1366 242/1367 210/1368
f 242/1369 606/1370 210/1371
f 594/1372 243/1373 593/1374
f 243/1375 244/1376 593/1377
f 243/1378 608/1379 244/1380
f 608/1381 607/1382 244/1383
f 242/1384 609/1385 606/1386
f 609/1387 246/1388 606/1389
f 489/1390 501/1391 241/1392
f 501/1393 248/1394 241/1395
f 238/1396 611/1397 239/1398
f 611/1399 610/1400 239/1401
f 604/1402 612/1403 605/1404
f 612/1405 251/1406 605/1407
f 181/1408 200/1409 20/1410
f 603/1411 602/1412 253/1413
f 602/1414 245/1415 253/1416
f 235/1417 241/1418 254/1419
f 241/1420 248/1421 254/1422
f 234/1423 235/1424 255/1425
f 235/1426 254/1427 255/1428
f 233/1429 234/1430 256/1431
f 234/1432 255/1433 256/1434
f 232/1435 233/1436 257/1437
f 233/1438 256/1439 257/1440
f 232/1441 257/1442 601/1443
f 257/1444 247/1445 601/1446
f 231/1447 600/1448 258/1449
f 600/1450 250/1451 258/1452
f 230/1453 231/1454 259/1455
f 231/1456 258/1457 259/1458
f 229/1459 230/1460 260/1461
f 230/1462 259/1463 260/1464
f 228/1465 229/1466 261/1467
f 229/1468 260/1469 261/1470
f 227/1471 228/1472 262/1473
f 228/1474 261/1475 262/1476
f 227/1477 262/1478 240/1479
f 262/1480 249/1481 240/1482
f 262/1483 263/1484 249/1485
f 263/1486 276/1487 249/1488
f 262/1489 261/1490 263/1491
f 261/1492 264/1493 263/1494
f 261/1495 260/1496 264/1497
f 260/1498 265/1499 264/1500
f 260/1501 259/1502 265/1503
f 259/1504 266/1505 265/1506
f 259/1507 258/1508 266/1509
f 258/1510 267/1511 266/1512
f 258/1513 250/1514 267/1515
f 250/1516 614/1517 267/1518
f 257/1519 268/1520 247/1521
f 268/1522 615/1523 247/1524
f 257/1525 256/1526 268/1527
f 256/1528 269/1529 268/1530
f 256/1531 255/1532 269/1533
f 255/1534 270/1535 269/1536
f 255/1537 254/1538 270/1539
f 254/1540 271/1541 270/1542
f 254/1543 248/1544 271/1545
f 248/1546 277/1547 271/1548
f 253/1549 245/1550 272/1551
f 245/1552 616/1553 272/1554
f 164/1555 181/1556 20/1557
f 612/1558 618/1559 251/1560
f 618/1561 619/1562 251/1563
f 611/1564 274/1565 610/1566
f 274/1567 275/1568 610/1569
f 501/1570 490/1571 248/1572
f 490/1573 277/1574 248/1575
f 609/1576 278/1577 246/1578
f 278/1579 620/1580 246/1581
f 608/1582 279/1583 607/1584
f 279/1585 280/1586 607/1587
f 279/1588 622/1589 280/1590
f 622/1591 621/1592 280/1593
f 278/1594 623/1595 620/1596
f 623/1597 282/1598 620/1599
f 490/1600 502/1601 277/1602
f 502/1603 284/1604 277/1605
f 274/1606 625/1607 275/1608
f 625/1609 624/1610 275/1611
f 618/1612 626/1613 619/1614
f 626/1615 287/1616 619/1617
f 145/1618 164/1619 20/1620
f 272/1621 616/1622 289/1623
f 616/1624 281/1625 289/1626
f 271/1627 277/1628 290/1629
f 277/1630 284/1631 290/1632
f 270/1633 271/1634 291/1635
f 271/1636 290/1637 291/1638
f 269/1639 270/1640 292/1641
f 270/1642 291/1643 292/1644
f 268/1645 269/1646 293/1647
f 269/1648 292/1649 293/1650
f 268/1651 293/1652 615/1653
f 293/1654 283/1655 615/1656
f 267/1657 614/1658 294/1659
f 614/1660 286/1661 294/1662
f 266/1663 267/1664 295/1665
f 267/1666 294/1667 295/1668
f 265/1669 266/1670 296/1671
f 266/1672 295/1673 296/1674
f 264/1675 265/1676 297/1677
f 265/1678 296/1679 297/1680
f 263/1681 264/1682 298/1683
f 264/1684 297/1685 298/1686
f 263/1687 298/1688 276/1689
f 298/1690 285/1691 276/1692
f 298/1693 299/1694 285/1695
f 299/1696 312/1697 285/1698
f 298/1699 297/1700 299/1701
f 297/1702 300/1703 299/1704
f 297/1705 296/1706 300/1707
f 296/1708 301/1709 300/1710
f 296/1711 295/1712 301/1713
f 295/1714 302/1715 301/1716
f 295/1717 294/1718 302/1719
f 294/1720 303/1721 302/1722
f 294/1723 286/1724 303/1725
f 286/1726 628/1727 303/1728
f 293/1729 304/1730 283/1731
f 304/1732 629/1733 283/1734
f 293/1735 292/1736 304/1737
f 292/1738 305/1739 304/1740
f 292/1741 291/1742 305/1743
f 291/1744 306/1745 305/1746
f 291/1747 290/1748 306/1749
f 290/1750 307/1751 306/1752
f 290/1753 284/1754 307/1755
f 284/1756 313/1757 307/1758
f 289/1759 281/1760 308/1761
f 281/1762 630/1763 308/1764
f 128/1765 145/1766 20/1767
f 626/1768 632/1769 287/1770
f 632/1771 633/1772 287/1773
f 625/1774 310/1775 624/1776
f 310/1777 311/1778 624/1779
f 502/1780 491/1781 284/1782
f 491/1783 313/1784 284/1785
f 623/1786 314/1787 282/1788
f 314/1789 634/1790 282/1791
f 622/1792 315/1793 621/1794
f 315/1795 316/1796 621/1797
f 315/1798 636/1799 316/1800
f 636/1801 635/1802 316/1803
f 314/1804 637/1805 634/1806
f 637/1807 318/1808 634/1809
f 491/1810 503/1811 313/1812
f 503/1813 320/1814 313/1815
f 310/1816 639/1817 311/1818
f 639/1819 638/1820 311/1821
f 632/1822 640/1823 633/1824
f 640/1825 323/1826 633/1827
f 109/1828 128/1829 20/1830
f 308/1831 630/1832 325/1833
f 630/1834 317/1835 325/1836
f 307/1837 313/1838 326/1839
f 313/1840 320/1841 326/1842
f 306/1843 307/1844 327/1845
f 307/1846 326/1847 327/1848
f 305/1849 306/1850 328/1851
f 306/1852 327/1853 328/1854
f 304/1855 305/1856 329/1857
f 305/1858 328/1859 329/1860
f 304/1861 329/1862 629/1863
f 329/1864 319/1865 629/1866
f 303/1867 628/1868 330/1869
f 628/1870 322/1871 330/1872
f 302/1873 303/1874 331/1875
f 303/1876 330/1877 331/1878
f 301/1879 302/1880 332/1881
f 302/1882 331/1883 332/1884
f 300/1885 301/1886 333/1887
f 301/1888 332/1889 333/1890
f 299/1891 300/1892 334/1893
f 300/1894 333/1895 334/1896
f 299/1897 334/1898 312/1899
f 334/1900 321/1901 312/1902
f 334/1903 335/1904 321/1905
f 335/1906 348/1907 321/1908
f 334/1909 333/1910 335/1911
f 333/1912 336/1913 335/1914
f 333/1915 332/1916 336/1917
f 332/1918 337/1919 336/1920
f 332/1921 331/1922 337/1923
f 331/1924 338/1925 337/1926
f 331/1927 330/1928 338/1929
f 330/1930 339/1931 338/1932
f 330/1933 322/1934 339/1935
f 322/1936 642/1937 339/1938
f 329/1939 340/1940 319/1941
f 340/1942 643/1943 319/1944
f 329/1945 328/1946 340/1947
f 328/1948 341/1949 340/1950
f 328/1951 327/1952 341/1953
f 327/1954 342/1955 341/1956
f 327/1957 326/1958 342/1959
f 326/1960 343/1961 342/1962
f 326/1963 320/1964 343/1965
f 320/1966 349/1967 343/1968
f 325/1969 317/1970 344/1971
f 317/1972 644/1973 344/1974
f 92/1975 109/1976 20/1977
f 640/1978 646/1979 323/1980
f 646/1981 647/1982 323/1983
f 639/1984 346/1985 638/1986
f 346/1987 347/1988 638/1989
f 503/1990 492/1991 320/1992
f 492/1993 349/1994 320/1995
f 637/1996 350/1997 318/1998
f 350/1999 648/2000 318/2001
f 636/2002 351/2003 635/2004
f 351/2005 352/2006 635/2007
f 351/2008 650/2009 352/2010
f 650/2011 649/2012 352/2013
f 350/2014 651/2015 648/2016
f 651/2017 354/2018 648/2019
f 492/2020 504/2021 349/2022
f 504/2023 356/2024 349/2025
f 346/2026 653/2027 347/2028
f 653/2029 652/2030 347/2031
f 646/2032 654/2033 647/2034
f 654/2035 359/2036 647/2037
f 73/2038 92/2039 20/2040
f 344/2041 644/2042 361/2043
f 644/2044 353/2045 361/2046
f 343/2047 349/2048 362/2049
f 349/2050 356/2051 362/2052
f 342/2053 343/2054 363/2055
f 343/2056 362/2057 363/2058
f 341/2059 342/2060 364/2061
f 342/2062 363/2063 364/2064
f 340/2065 341/2066 365/2067
f 341/2068 364/2069 365/2070
f 340/2071 365/2072 643/2073
f 365/2074 355/2075 643/2076
f 339/2077 642/2078 366/2079
f 642/2080 358/2081 366/2082
f 338/2083 339/2084 367/2085
f 339/2086 366/2087 367/2088
f 337/2089 338/2090 368/2091
f 338/2092 367/2093 368/2094
f 336/2095 337/2096 369/2097
f 337/2098 368/2099 369/2100
f 335/2101 336/2102 370/2103
f 336/2104 369/2105 370/2106
f 335/2107 370/2108 348/2109
f 370/2110 357/2111 348/2112
f 370/2113 371/2114 357/2115
f 371/2116 384/2117 357/2118
f 370/2119 369/2120 371/2121
f 369/2122 372/2123 371/2124
f 369/2125 368/2126 372/2127
f 368/2128 373/2129 372/2130
f 368/2131 367/2132 373/2133
f 367/2134 374/2135 373/2136
f 367/2137 366/2138 374/2139
f 366/2140 375/2141 374/2142
f 366/2143 358/2144 375/2145
f 358/2146 656/2147 375/2148
f 365/2149 376/2150 355/2151
f 376/2152 657/2153 355/2154
f 365/2155 364/2156 376/2157
f 364/2158 377/2159 376/2160
f 364/2161 363/2162 377/2163
f 363/2164 378/2165 377/2166
f 363/2167 362/2168 378/2169
f 362/2170 379/2171 378/2172
f 362/2173 356/2174 379/2175
f 356/2176 385/2177 379/2178
f 361/2179 353/2180 380/2181
f 353/2182 658/2183 380/2184
f 56/2185 73/2186 20/2187
f 654/2188 381/2189 359/2190
f 381/2191 661/2192 359/2193
f 653/2194 382/2195 652/2196
f 382/2197 383/2198 652/2199
f 504/2200 493/2201 356/2202
f 493/2203 385/2204 356/2205
f 651/2206 386/2207 354/2208
f 386/2209 662/2210 354/2211
f 650/2212 387/2213 649/2214
f 387/2215 388/2216 649/2217
f 387/2218 664/2219 388/2220
f 664/2221 663/2222 388/2223
f 386/2224 665/2225 662/2226
f 665/2227 390/2228 662/2229
f 493/2230 505/2231 385/2232
f 505/2233 392/2234 385/2235
f 382/2236 667/2237 383/2238
f 667/2239 666/2240 383/2241
f 381/2242 668/2243 661/2244
f 668/2245 395/2246 661/2247
f 37/2248 56/2249 20/2250
f 380/2251 658/2252 397/2253
f 658/2254 389/2255 397/2256
f 379/2257 385/2258 398/2259
f 385/2260 392/2261 398/2262
f 378/2263 379/2264 399/2265
f 379/2266 398/2267 399/2268
f 377/2269 378/2270 400/2271
f 378/2272 399/2273 400/2274
f 376/2275 377/2276 401/2277
f 377/2278 400/2279 401/2280
f 376/2281 401/2282 657/2283
f 401/2284 391/2285 657/2286
f 375/2287 656/2288 402/2289
f 656/2290 394/2291 402/2292
f 374/2293 375/2294 403/2295
f 375/2296 402/2297 403/2298
f 373/2299 374/2300 404/2301
f 374/2302 403/2303 404/2304
f 372/2305 373/2306 405/2307
f 373/2308 404/2309 405/2310
f 371/2311 372/2312 406/2313
f 372/2314 405/2315 406/2316
f 371/2317 406/2318 384/2319
f 406/2320 393/2321 384/2322
f 406/2323 407/2324 393/2325
f 407/2326 420/2327 393/2328
f 406/2329 405/2330 407/2331
f 405/2332 408/2333 407/2334
f 405/2335 404/2336 408/2337
f 404/2338 409/2339 408/2340
f 404/2341 403/2342 409/2343
f 403/2344 410/2345 409/2346
f 403/2347 402/2348 410/2349
f 402/2350 411/2351 410/2352
f 402/2353 394/2354 411/2355
f 394/2356 670/2357 411/2358
f 401/2359 412/2360 391/2361
f 412/2362 671/2363 391/2364
f 401/2365 400/2366 412/2367
f 400/2368 413/2369 412/2370
f 400/2371 399/2372 413/2373
f 399/2374 414/2375 413/2376
f 399/2377 398/2378 414/2379
f 398/2380 415/2381 414/2382
f 398/2383 392/2384 415/2385
f 392/2386 421/2387 415/2388
f 397/2389 389/2390 416/2391
f 389/2392 672/2393 416/2394
f 19/2395 37/2396 20/2397
f 668/2398 417/2399 395/2400
f 417/2401 675/2402 395/2403
f 667/2404 418/2405 666/2406
f 418/2407 419/2408 666/2409
f 505/2410 494/2411 392/2412
f 494/2413 421/2414 392/2415
f 665/2416 422/2417 390/2418
f 422/2419 676/2420 390/2421
f 664/2422 423/2423 663/2424
f 423/2425 424/2426 663/2427
f 423/2428 678/2429 424/2430
f 678/2431 677/2432 424/2433
f 422/2434 679/2435 676/2436
f 679/2437 426/2438 676/2439
f 494/2440 506/2441 421/2442
f 506/2443 428/2444 421/2445
f 418/2446 681/2447 419/2448
f 681/2449 680/2450 419/2451
f 417/2452 682/2453 675/2454
f 682/2455 431/2456 675/2457
f 683/2458 19/2459 20/2460
f 416/2461 672/2462 433/2463
f 672/2464 425/2465 433/2466
f 415/2467 421/2468 434/2469
f 421/2470 428/2471 434/2472
f 414/2473 415/2474 435/2475
f 415/2476 434/2477 435/2478
f 413/2479 414/2480 436/2481
f 414/2482 435/2483 436/2484
f 412/2485 413/2486 437/2487
f 413/2488 436/2489 437/2490
f 412/2491 437/2492 671/2493
f 437/2494 427/2495 671/2496
f 411/2497 670/2498 438/2499
f 670/2500 430/2501 438/2502
f 410/2503 411/2504 439/2505
f 411/2506 438/2507 439/2508
f 439/2509 9/2510 410/2511
f 9/2512 409/2513 410/2514
f 9/2515 440/2516 409/2517
f 440/2518 408/2519 409/2520
f 407/2521 408/2522 441/2523
f 408/2524 440/2525 441/2526
f 407/2527 441/2528 420/2529
f 441/2530 429/2531 420/2532
f 692/2533 693/2534 324/2535
f 693/2536 345/2537 324/2538
f 697/2539 698/2540 674/2541
f 698/2542 432/2543 674/2544
f 690/2545 691/2546 288/2547
f 691/2548 309/2549 288/2550
f 695/2551 696/2552 660/2553
f 696/2554 396/2555 660/2556
f 21/2557 432/2558 515/2559
f 432/2560 698/2561 515/2562
f 688/2563 689/2564 252/2565
f 689/2566 273/2567 252/2568
f 693/2569 694/2570 345/2571
f 694/2572 360/2573 345/2574
f 686/2575 687/2576 216/2577
f 687/2578 237/2579 216/2580
f 691/2581 692/2582 309/2583
f 692/2584 324/2585 309/2586
f 684/2587 685/2588 180/2589
f 685/2590 201/2591 180/2592
f 689/2593 690/2594 273/2595
f 690/2596 288/2597 273/2598
f 507/2599 508/2600 144/2601
f 508/2602 165/2603 144/2604
f 687/2605 688/2606 237/2607
f 688/2608 252/2609 237/2610
f 510/2611 509/2612 108/2613
f 509/2614 129/2615 108/2616
f 685/2617 686/2618 201/2619
f 686/2620 216/2621 201/2622
f 512/2623 511/2624 72/2625
f 511/2626 93/2627 72/2628
f 508/2629 684/2630 165/2631
f 684/2632 180/2633 165/2634
f 514/2635 513/2636 36/2637
f 513/2638 57/2639 36/2640
f 509/2641 507/2642 129/2643
f 507/2644 144/2645 129/2646
f 511/2647 510/2648 93/2649
f 510/2650 108/2651 93/2652
f 513/2653 512/2654 57/2655
f 512/2656 72/2657 57/2658
f 515/2659 514/2660 21/2661
f 514/2662 36/2663 21/2664
f 458/2665 457/2666 456/2667
f 458/2668 452/2669 451/2670
f 458/2671 447/2672 446/2673
f 458/2674 5/2675 6/2676
f 458/2677 442/2678 1/2679
f 8/2680 457/2681 458/2682
f 458/2683 453/2684 452/2685
f 458/2686 448/2687 447/2688
f 458/2689 6/2690 7/2691
f 458/2692 443/2693 442/2694
f 458/2695 1/2696 2/2697
f 458/2698 454/2699 453/2700
f 458/2701 449/2702 448/2703
f 458/2704 7/2705 8/2706
f 458/2707 2/2708 3/2709
f 458/2710 444/2711 443/2712
f 458/2713 455/2714 454/2715
f 458/2716 450/2717 449/2718
f 458/2719 445/2720 444/2721
f 458/2722 3/2723 4/2724
f 458/2725 456/2726 455/2727
f 458/2728 451/2729 450/2730
f 458/2731 446/2732 445/2733
f 458/2734 4/2735 5/2736
f 420/2737 429/2738 481/2739
f 429/2740 482/2741 481/2742
f 393/2743 420/2744 480/2745
f 420/2746 481/2747 480/2748
f 384/2749 393/2750 479/2751
f 393/2752 480/2753 479/2754
f 357/2755 384/2756 478/2757
f 384/2758 479/2759 478/2760
f 348/2761 357/2762 477/2763
f 357/2764 478/2765 477/2766
f 321/2767 348/2768 476/2769
f 348/2770 477/2771 476/2772
f 312/2773 321/2774 475/2775
f 321/2776 476/2777 475/2778
f 285/2779 312/2780 474/2781
f 312/2782 475/2783 474/2784
f 276/2785 285/2786 473/2787
f 285/2788 474/2789 473/2790
f 249/2791 276/2792 472/2793
f 276/2794 473/2795 472/2796
f 240/2797 249/2798 471/2799
f 249/2800 472/2801 471/2802
f 213/2803 240/2804 470/2805
f 240/2806 471/2807 470/2808
f 204/2809 213/2810 469/2811
f 213/2812 470/2813 469/2814
f 177/2815 204/2816 468/2817
f 204/2818 469/2819 468/2820
f 168/2821 177/2822 467/2823
f 177/2824 468/2825 467/2826
f 141/2827 168/2828 466/2829
f 168/2830 467/2831 466/2832
f 132/2833 141/2834 465/2835
f 141/2836 466/2837 465/2838
f 105/2839 132/2840 464/2841
f 132/2842 465/2843 464/2844
f 96/2845 105/2846 463/2847
f 105/2848 464/2849 463/2850
f 69/2851 96/2852 462/2853
f 96/2854 463/2855 462/2856
f 60/2857 69/2858 461/2859
f 69/2860 462/2861 461/2862
f 33/2863 60/2864 460/2865
f 60/2866 461/2867 460/2868
f 24/2869 33/2870 459/2871
f 33/2872 460/2873 459/2874
f 429/2875 24/2876 482/2877
f 24/2878 459/2879 482/2880
f 481/2881 482/2882 494/2883
f 482/2884 506/2885 494/2886
f 480/2887 481/2888 505/2889
f 481/2890 494/2891 505/2892
f 479/2893 480/2894 493/2895
f 480/2896 505/2897 493/2898
f 478/2899 479/2900 504/2901
f 479/2902 493/2903 504/2904
f 477/2905 478/2906 492/2907
f 478/2908 504/2909 492/2910
f 476/2911 477/2912 503/2913
f 477/2914 492/2915 503/2916
f 475/2917 476/2918 491/2919
f 476/2920 503/2921 491/2922
f 474/2923 475/2924 502/2925
f 475/2926 491/2927 502/2928
f 473/2929 474/2930 490/2931
f 474/2932 502/2933 490/2934
f 472/2935 473/2936 501/2937
f 473/2938 490/2939 501/2940
f 471/2941 472/2942 489/2943
f 472/2944 501/2945 489/2946
f 470/2947 471/2948 500/2949
f 471/2950 489/2951 500/2952
f 469/2953 470/2954 488/2955
f 470/2956 500/2957 488/2958
f 468/2959 469/2960 499/2961
f 469/2962 488/2963 499/2964
f 467/2965 468/2966 487/2967
f 468/2968 499/2969 487/2970
f 466/2971 467/2972 498/2973
f 467/2974 487/2975 498/2976
f 465/2977 466/2978 486/2979
f 466/2980 498/2981 486/2982
f 464/2983 465/2984 497/2985
f 465/2986 486/2987 497/2988
f 463/2989 464/2990 485/2991
f 464/2992 497/2993 485/2994
f 462/2995 463/2996 496/2997
f 463/2998 485/2999 496/3000
f 461/3001 462/3002 484/3003
f 462/3004 496/3005 484/3006
f 460/3007 461/3008 495/3009
f 461/3010 484/3011 495/3012
f 459/3013 460/3014 483/3015
f 460/3016 495/3017 483/3018
f 482/3019 459/3020 506/3021
f 459/3022 483/3023 506/3024
